<svg width="320" height="853" viewBox="0 0 320 853" fill="none" xmlns="http://www.w3.org/2000/svg">
<g opacity="0.1">
<path d="M151.723 762.619C295.397 603.646 153.713 571.658 64.9119 575.536C-24.0505 581.078 -88.2999 552.653 -109.304 537.747C-478.983 247.734 -325.796 1273.34 -189.173 931.315C-52.5489 589.29 -27.8689 961.336 151.723 762.619Z" stroke="#ECA2B4" stroke-width="2.73968"/>
<path d="M-39.3774 751.693C30.342 674.547 -38.4105 659.025 -81.5017 660.908C-124.671 663.598 -155.848 649.804 -166.04 642.571C-345.427 501.839 -271.099 999.534 -204.8 833.558C-138.5 667.583 -126.527 848.125 -39.3774 751.693Z" stroke="#ECA2B4" stroke-width="2.73968"/>
<path d="M-23.4531 752.604C52.4291 668.639 -22.401 651.745 -69.3013 653.794C-116.287 656.721 -150.22 641.709 -161.313 633.836C-356.557 480.665 -275.658 1022.35 -203.498 841.705C-131.338 661.059 -118.306 857.56 -23.4531 752.604Z" stroke="#ECA2B4" stroke-width="2.73968"/>
<path d="M-7.52744 753.514C74.5177 662.73 -6.39006 644.464 -57.0996 646.679C-107.901 649.845 -144.59 633.613 -156.585 625.101C-367.687 459.489 -280.216 1045.17 -202.195 849.851C-124.175 654.534 -110.084 866.994 -7.52744 753.514Z" stroke="#ECA2B4" stroke-width="2.73968"/>
<path d="M8.39762 754.424C96.6056 656.822 9.62025 637.184 -44.8984 639.565C-99.516 642.968 -138.961 625.516 -151.856 616.365C-378.816 438.313 -284.774 1067.99 -200.893 857.998C-117.012 648.01 -101.862 876.428 8.39762 754.424Z" stroke="#ECA2B4" stroke-width="2.73968"/>
<path d="M24.3224 755.335C118.693 650.914 25.6303 629.903 -32.6975 632.451C-91.1313 636.091 -133.332 617.421 -147.129 607.63C-389.946 417.138 -289.332 1090.8 -199.591 866.144C-109.85 641.486 -93.6411 885.862 24.3224 755.335Z" stroke="#ECA2B4" stroke-width="2.73968"/>
<path d="M40.2478 756.245C140.782 645.005 41.641 622.622 -20.496 625.336C-82.7458 629.214 -127.703 609.324 -142.4 598.895C-401.075 395.962 -293.89 1113.62 -198.288 874.29C-102.687 634.961 -85.4193 895.296 40.2478 756.245Z" stroke="#ECA2B4" stroke-width="2.73968"/>
<path d="M56.1734 757.156C162.87 639.096 57.6518 615.341 -8.29442 618.222C-74.3603 622.337 -122.074 601.228 -137.672 590.159C-412.205 374.786 -298.447 1136.44 -196.986 882.436C-95.524 628.436 -77.1973 904.73 56.1734 757.156Z" stroke="#ECA2B4" stroke-width="2.73968"/>
<path d="M72.0982 758.067C184.958 633.188 73.6617 608.061 3.90643 611.108C-65.9755 615.461 -116.445 593.132 -132.944 581.424C-423.335 353.611 -303.006 1159.25 -195.684 890.583C-88.3617 621.912 -68.9761 914.165 72.0982 758.067Z" stroke="#ECA2B4" stroke-width="2.73968"/>
<path d="M88.0232 758.977C207.045 627.279 89.6721 600.78 16.1076 603.993C-57.5904 608.584 -110.816 585.036 -128.216 572.688C-434.464 332.436 -307.564 1182.07 -194.381 898.729C-81.1991 615.387 -60.7546 923.599 88.0232 758.977Z" stroke="#ECA2B4" stroke-width="2.73968"/>
<path d="M103.948 759.887C229.134 621.371 105.683 593.5 28.309 596.879C-49.2052 601.707 -105.186 576.94 -123.488 563.953C-445.594 311.26 -312.122 1204.89 -193.079 906.876C-74.0362 608.863 -52.5329 933.033 103.948 759.887Z" stroke="#ECA2B4" stroke-width="2.73968"/>
<path d="M119.874 760.797C251.222 615.462 121.693 586.219 40.5102 589.764C-40.82 594.83 -99.5573 568.844 -118.76 555.217C-456.723 290.085 -316.68 1227.71 -191.777 915.022C-66.8736 602.338 -44.3113 942.466 119.874 760.797Z" stroke="#ECA2B4" stroke-width="2.73968"/>
<path d="M135.799 761.708C273.309 609.554 137.703 578.939 52.7113 582.65C-32.435 587.954 -93.9283 560.748 -114.032 546.482C-467.853 268.91 -321.238 1250.52 -190.474 923.169C-59.711 595.814 -36.0898 951.901 135.799 761.708Z" stroke="#ECA2B4" stroke-width="2.73968"/>
</g>
<g opacity="0.1">
<g opacity="0.6">
<path opacity="0.0512" d="M309.344 850.915C453.85 779.22 636.341 724.6 592.995 541.662C497.121 137.03 121.333 259.57 176.045 374.63C277.728 588.475 177.853 503.842 64.1551 710.713C-49.5433 917.583 128.711 940.533 309.344 850.915Z" stroke="#D6375D" stroke-width="3"/>
<path opacity="0.0925" d="M306.172 838.999C448.59 771.116 627.891 720.515 588.322 540.949C500.801 143.777 131.427 257.818 183.157 371.181C279.299 581.869 182.934 497.566 68.5602 698.115C-45.814 898.663 128.149 923.853 306.172 838.999Z" stroke="#D6375D" stroke-width="3"/>
<path opacity="0.1338" d="M303.204 827.296C443.451 763.139 619.481 716.443 583.572 540.323C504.145 150.772 141.357 256.547 190.172 368.146C280.898 575.559 188.008 491.675 73.1287 685.932C-41.7509 880.189 127.894 907.491 303.204 827.296Z" stroke="#D6375D" stroke-width="3"/>
<path opacity="0.175" d="M300.434 815.81C438.429 755.295 611.112 712.388 578.743 539.783C507.147 158.006 151.112 255.752 197.082 365.525C282.519 569.544 193.067 486.167 77.8507 674.169C-37.3652 862.17 127.941 891.454 300.434 815.81Z" stroke="#D6375D" stroke-width="3"/>
<path opacity="0.2163" d="M297.858 804.544C433.521 747.584 602.781 708.349 573.833 539.326C509.804 165.471 160.683 255.427 203.877 363.313C284.155 563.824 198.101 481.041 82.7163 662.826C-32.668 844.61 128.279 875.745 297.858 804.544Z" stroke="#D6375D" stroke-width="3"/>
<path opacity="0.2575" d="M295.47 793.504C428.724 740.008 594.49 704.326 568.841 538.949C512.111 173.159 170.059 255.568 210.548 361.507C285.8 558.399 203.101 476.296 87.7155 651.906C-27.6705 827.516 128.901 860.373 295.47 793.504Z" stroke="#D6375D" stroke-width="3"/>
<path opacity="0.2988" d="M293.264 782.691C424.035 732.571 586.237 700.322 563.766 538.651C514.063 181.06 179.23 256.167 217.087 360.101C287.446 553.268 208.061 471.93 92.8384 641.411C-22.384 810.892 129.799 845.342 293.264 782.691Z" stroke="#D6375D" stroke-width="3"/>
<path opacity="0.34" d="M291.234 772.11C419.45 725.273 578.022 696.335 558.605 538.43C515.658 189.166 188.185 257.22 223.484 359.093C289.087 548.43 212.97 467.941 98.0748 631.343C-16.8203 794.745 130.964 830.657 291.234 772.11Z" stroke="#D6375D" stroke-width="3"/>
<path opacity="0.3812" d="M289.375 761.765C414.965 718.117 569.845 692.369 553.358 538.283C516.89 197.468 196.916 258.72 229.73 358.479C290.717 543.885 217.82 464.326 103.415 621.703C-10.9907 779.081 132.387 816.324 289.375 761.765Z" stroke="#D6375D" stroke-width="3"/>
<path opacity="0.4225" d="M287.68 751.658C410.576 711.105 561.704 688.422 548.021 538.209C517.757 205.959 205.412 260.662 235.818 358.254C292.328 539.632 222.603 461.084 108.848 612.493C-4.90753 763.902 134.06 802.348 287.68 751.658Z" stroke="#D6375D" stroke-width="3"/>
<path opacity="0.4638" d="M286.145 741.792C406.282 704.239 553.6 684.496 542.595 538.204C518.255 214.627 213.663 263.038 241.737 358.412C293.914 535.668 227.311 458.212 114.364 603.714C1.4181 749.215 135.974 788.734 286.145 741.792Z" stroke="#D6375D" stroke-width="3"/>
<path opacity="0.505" d="M284.762 732.171C402.077 697.52 545.531 680.592 537.077 538.267C518.38 223.465 221.661 265.842 247.481 358.949C295.467 531.993 231.934 455.707 119.954 595.365C7.97378 735.023 138.119 775.486 284.762 732.171Z" stroke="#D6375D" stroke-width="3"/>
<path opacity="0.5462" d="M283.527 722.799C397.958 690.951 537.497 676.71 531.468 538.396C518.13 232.464 229.396 269.068 253.04 359.862C296.983 528.607 236.465 453.568 125.607 587.45C14.7483 721.332 140.488 762.609 283.527 722.799Z" stroke="#D6375D" stroke-width="3"/>
<path opacity="0.5875" d="M282.433 713.678C393.922 684.533 529.499 672.853 525.764 538.588C517.502 241.615 236.859 272.708 258.407 361.144C298.454 525.508 240.896 451.79 131.313 579.967C21.729 708.144 143.071 750.108 282.433 713.678Z" stroke="#D6375D" stroke-width="3"/>
<path opacity="0.6288" d="M281.473 704.809C389.965 678.267 521.534 669.018 519.964 538.841C516.493 250.909 244.041 276.754 263.572 362.79C299.873 522.692 245.219 450.371 137.061 572.917C28.904 695.464 145.858 737.986 281.473 704.809Z" stroke="#D6375D" stroke-width="3"/>
<path opacity="0.67" d="M280.642 696.197C386.084 672.156 513.602 665.209 514.069 539.154C515.1 260.336 250.932 281.201 268.53 364.796C301.235 520.16 249.424 449.307 142.843 566.301C36.261 683.295 148.841 726.248 280.642 696.197Z" stroke="#D6375D" stroke-width="3"/>
<path opacity="0.7113" d="M279.935 687.843C382.274 666.2 505.704 661.426 508.076 539.522C513.322 269.888 257.526 286.04 273.27 367.154C302.532 517.908 253.506 448.595 148.647 560.118C43.7885 671.64 152.011 714.897 279.935 687.843Z" stroke="#D6375D" stroke-width="3"/>
<path opacity="0.7525" d="M279.343 679.75C378.532 660.401 497.837 657.668 501.984 539.944C511.156 279.555 263.812 291.263 277.787 369.86C303.759 515.935 257.454 448.232 154.464 554.367C51.4733 660.502 155.357 703.936 279.343 679.75Z" stroke="#D6375D" stroke-width="3"/>
<path opacity="0.7937" d="M278.861 671.92C374.853 654.76 490.001 653.938 495.792 540.418C508.6 289.329 269.783 296.863 282.071 372.907C304.908 514.239 261.263 448.213 160.283 549.048C59.3035 649.884 158.871 693.37 278.861 671.92Z" stroke="#D6375D" stroke-width="3"/>
<path opacity="0.835" d="M278.483 664.355C371.235 649.278 482.197 650.235 489.5 540.941C505.654 299.199 275.431 302.831 286.116 376.29C305.975 512.817 264.923 448.535 166.095 544.161C67.267 639.787 162.543 683.201 278.483 664.355Z" stroke="#D6375D" stroke-width="3"/>
<path opacity="0.8763" d="M278.202 657.056C367.673 643.956 474.422 646.559 483.106 541.51C502.313 309.155 280.746 309.159 289.913 380.001C306.951 511.666 268.427 449.193 171.889 539.703C75.3505 630.214 166.363 673.43 278.202 657.056Z" stroke="#D6375D" stroke-width="3"/>
<path opacity="0.9175" d="M278.013 650.026C364.164 638.796 466.676 642.914 476.609 542.124C498.579 319.191 285.723 315.839 293.457 384.037C307.832 510.786 271.769 450.184 177.656 535.676C83.5427 621.167 170.323 664.064 278.013 650.026Z" stroke="#D6375D" stroke-width="3"/>
<path opacity="0.9588" d="M277.908 643.267C360.704 633.799 458.959 639.298 470.009 542.78C494.449 329.296 290.353 322.863 296.74 388.389C308.611 510.172 274.939 451.503 183.385 532.076C91.8305 612.649 174.412 655.103 277.908 643.267Z" stroke="#D6375D" stroke-width="3"/>
<path d="M277.881 636.78C357.289 628.965 451.27 635.712 463.305 543.475C489.923 339.46 294.629 330.222 299.755 393.051C309.282 509.821 277.932 453.145 189.067 528.902C100.202 604.659 178.621 646.549 277.881 636.78Z" stroke="#D6375D" stroke-width="3"/>
<path d="M277.925 630.566C353.914 624.294 443.608 632.156 456.495 544.206C485 349.674 298.543 337.906 302.495 398.015C309.84 509.731 280.739 455.106 194.691 526.152C108.644 597.198 182.939 638.405 277.925 630.566Z" stroke="#D6375D" stroke-width="3"/>
<path d="M278.035 624.626C350.577 619.788 435.973 628.633 449.581 544.973C479.679 359.93 302.089 345.908 304.954 403.277C310.278 509.9 283.354 457.381 200.249 523.825C117.144 590.269 187.358 630.673 278.035 624.626Z" stroke="#D6375D" stroke-width="3"/>
<path d="M278.204 618.962C347.273 615.448 428.363 625.141 442.559 545.771C473.961 370.216 305.26 354.217 307.124 408.827C310.59 510.322 285.769 459.965 205.73 521.918C125.69 583.871 191.867 623.355 278.204 618.962Z" stroke="#D6375D" stroke-width="3"/>
<path d="M278.424 613.574C343.998 611.273 420.777 621.681 435.431 546.598C467.844 380.525 308.048 362.824 309.001 414.659C310.771 510.996 287.978 462.853 211.124 520.429C134.27 578.005 196.457 616.45 278.424 613.574Z" stroke="#D6375D" stroke-width="3"/>
<path d="M278.69 608.464C340.748 607.265 413.215 618.254 428.195 547.452C461.329 390.846 310.448 371.721 310.576 420.766C310.815 511.917 289.973 466.039 216.422 519.354C142.87 572.67 201.117 609.963 278.69 608.464Z" stroke="#D6375D" stroke-width="3"/>
<path d="M278.994 603.631C337.519 603.423 405.677 614.86 420.852 548.329C454.416 401.17 312.453 380.897 311.845 427.139C310.716 513.082 291.748 469.518 221.613 518.692C151.478 567.866 205.839 603.892 278.994 603.631Z" stroke="#D6375D" stroke-width="3"/>
<path d="M279.331 599.077C334.308 599.748 398.161 611.501 413.4 549.228C447.106 411.489 314.058 390.343 312.802 433.773C310.469 514.488 293.297 473.284 226.69 518.438C160.083 563.593 210.611 598.239 279.331 599.077Z" stroke="#D6375D" stroke-width="3"/>
<path d="M279.695 594.803C331.111 596.241 390.666 608.176 405.839 550.146C439.4 421.793 315.256 400.05 313.441 440.659C310.068 516.131 294.613 477.333 231.642 518.592C168.67 559.85 215.425 593.006 279.695 594.803Z" stroke="#D6375D" stroke-width="3"/>
<path d="M280.077 590.808C327.923 592.901 383.192 604.887 398.17 551.081C431.297 432.072 316.041 410.008 313.756 447.789C309.508 518.007 295.689 481.658 236.459 519.147C177.229 556.637 220.269 588.192 280.077 590.808Z" stroke="#D6375D" stroke-width="3"/>
<path d="M280.471 587.092C324.74 589.728 375.738 601.632 390.391 552.03C422.8 442.317 316.409 420.206 313.742 455.156C308.784 520.112 296.52 486.253 241.133 520.102C185.746 553.951 225.135 583.797 280.471 587.092Z" stroke="#D6375D" stroke-width="3"/>
<path d="M280.872 583.655C321.56 586.722 368.303 598.414 382.503 552.99C413.909 452.519 316.355 430.634 313.394 462.75C307.89 522.441 297.099 491.111 245.654 521.451C194.209 551.791 230.013 579.822 280.872 583.655Z" stroke="#D6375D" stroke-width="3"/>
<path d="M281.273 580.498C318.377 583.883 360.886 595.232 374.505 553.958C404.626 462.668 315.872 441.282 312.706 470.566C306.822 524.991 297.421 496.228 250.014 523.192C202.606 550.157 234.892 576.266 281.273 580.498Z" stroke="#D6375D" stroke-width="3"/>
<path d="M281.666 577.62C315.188 581.212 353.486 592.086 366.397 554.933C394.953 472.757 314.957 452.14 311.675 478.593C305.574 527.757 297.479 501.597 254.202 525.32C210.925 549.044 239.763 573.13 281.666 577.62Z" stroke="#D6375D" stroke-width="3"/>
<path d="M282.045 575.02C311.988 578.706 346.103 588.977 358.179 555.911C384.89 482.774 313.604 463.198 310.294 486.824C304.141 530.734 297.267 507.21 258.21 527.83C219.152 548.451 244.616 570.412 282.045 575.02Z" stroke="#D6375D" stroke-width="3"/>
<path d="M282.404 572.697C308.774 576.367 338.734 585.905 349.851 556.889C374.44 492.711 311.81 474.443 308.56 495.249C302.519 533.919 296.781 513.061 262.029 530.718C227.277 548.375 249.44 568.111 282.404 572.697Z" stroke="#D6375D" stroke-width="3"/>
<path d="M282.736 570.653C305.543 574.194 331.381 582.871 341.414 557.866C363.607 502.559 309.571 485.869 306.468 503.863C300.702 537.306 296.014 519.145 265.651 533.98C235.287 548.815 254.227 566.227 282.736 570.653Z" stroke="#D6375D" stroke-width="3"/>
<path d="M283.035 568.885C302.29 572.185 324.041 579.875 332.868 558.839C352.391 512.31 306.881 497.461 304.015 512.654C298.687 540.891 294.963 525.453 269.066 537.609C243.169 549.766 258.966 564.759 283.035 568.885Z" stroke="#D6375D" stroke-width="3"/>
</g>
<ellipse cx="269.479" cy="528.182" rx="28.6422" ry="28.6422" transform="rotate(-165.874 269.479 528.182)" fill="#E2738E" fill-opacity="0.4"/>
<ellipse cx="269.479" cy="528.182" rx="28.6422" ry="28.6422" transform="rotate(-165.874 269.479 528.182)" fill="url(#paint0_linear_47_794)" style="mix-blend-mode:soft-light"/>
<ellipse cx="269.479" cy="528.182" rx="28.6422" ry="28.6422" transform="rotate(-165.874 269.479 528.182)" fill="url(#paint1_linear_47_794)" style="mix-blend-mode:soft-light"/>
<circle cx="313.11" cy="419.312" r="21.3932" transform="rotate(-165.874 313.11 419.312)" fill="#E2738E" fill-opacity="0.4"/>
<circle cx="313.11" cy="419.312" r="21.3932" transform="rotate(-165.874 313.11 419.312)" fill="url(#paint2_linear_47_794)" style="mix-blend-mode:soft-light"/>
<circle cx="313.11" cy="419.312" r="21.3932" transform="rotate(-165.874 313.11 419.312)" fill="url(#paint3_linear_47_794)" style="mix-blend-mode:soft-light"/>
</g>
<g opacity="0.1">
<g opacity="0.7">
<path d="M-293.196 43.849C-476.71 124.411 -370.649 287.447 -294.678 358.894C-66.1015 525.421 4.23142 322.119 -94.3339 188.728C-192.899 55.336 148.717 115.604 131.911 -81.1467C112.423 -309.287 -63.8025 -56.8539 -293.196 43.849Z" stroke="#ECA2B4" stroke-width="3"/>
<path opacity="0.95875" d="M-286.271 49.8189C-472.917 124.78 -373.483 290.925 -300.436 364.627C-78.7023 537.968 -0.227766 336.918 -93.363 200.626C-186.498 64.3334 152.484 134.9 143.608 -62.2393C133.317 -290.831 -52.9636 -43.8825 -286.271 49.8189Z" stroke="#ECA2B4" stroke-width="3"/>
<path opacity="0.9175" d="M-279.591 55.9948C-469.142 125.263 -376.457 294.315 -306.421 370.183C-91.8009 550.127 -5.28027 351.573 -92.872 212.546C-180.464 73.5189 155.471 154.299 154.537 -42.9895C153.455 -271.753 -42.6538 -30.5911 -279.591 55.9948Z" stroke="#ECA2B4" stroke-width="3"/>
<path opacity="0.87625" d="M-273.164 62.3689C-465.388 125.861 -379.565 297.614 -312.626 375.554C-105.381 561.881 -10.9197 366.066 -92.8611 224.474C-174.802 82.8814 157.675 173.775 164.685 -23.4208C172.813 -252.078 -32.8853 -16.9958 -273.164 62.3689Z" stroke="#ECA2B4" stroke-width="3"/>
<path opacity="0.835" d="M-266.998 68.9336C-461.66 126.571 -382.804 300.816 -319.044 380.734C-119.426 573.218 -17.1391 380.38 -93.3304 236.395C-169.522 92.4096 159.094 193.307 174.038 -3.55698C191.366 -231.829 -23.6701 -3.11322 -266.998 68.9336Z" stroke="#ECA2B4" stroke-width="3"/>
<path opacity="0.79375" d="M-261.099 75.6809C-457.963 127.394 -386.17 303.918 -325.666 385.717C-133.919 584.123 -23.931 394.497 -94.2793 248.294C-164.628 102.092 159.726 212.87 182.587 16.5777C209.094 -211.031 -15.0193 11.0397 -261.099 75.6809Z" stroke="#ECA2B4" stroke-width="3"/>
<path opacity="0.7525" d="M-255.476 82.6025C-454.302 128.328 -389.659 306.917 -332.485 390.496C-148.842 594.582 -31.287 408.399 -95.7067 260.158C-160.126 111.916 159.57 232.439 190.319 36.9588C225.973 -189.709 -6.94366 25.4456 -255.476 82.6025Z" stroke="#ECA2B4" stroke-width="3"/>
<path opacity="0.71125" d="M-250.135 89.6901C-450.681 129.372 -393.267 309.808 -339.492 395.066C-164.177 604.584 -39.1984 422.071 -97.6108 271.971C-156.023 121.87 158.627 251.993 197.226 57.5613C241.984 -167.89 0.547144 40.0872 -250.135 89.6901Z" stroke="#ECA2B4" stroke-width="3"/>
<path opacity="0.67" d="M-245.082 96.9349C-447.103 130.526 -396.989 312.589 -346.678 399.421C-179.905 614.116 -47.6551 435.495 -99.9893 283.719C-152.324 131.943 156.896 271.505 203.3 78.3603C257.106 -145.599 7.44403 54.9464 -245.082 96.9349Z" stroke="#ECA2B4" stroke-width="3"/>
<path opacity="0.62875" d="M-240.324 104.328C-443.574 131.787 -400.82 315.255 -354.036 403.557C-196.007 623.166 -56.6469 448.655 -102.839 295.388C-149.031 142.121 154.382 290.954 208.532 99.3304C271.322 -122.865 13.7388 70.0053 -240.324 104.328Z" stroke="#ECA2B4" stroke-width="3"/>
<path opacity="0.5875" d="M-235.867 111.861C-440.099 133.153 -404.756 317.803 -361.556 407.467C-212.464 631.723 -66.1638 461.535 -106.158 306.964C-146.151 152.393 151.085 310.314 212.917 120.446C284.614 -99.7141 19.4227 85.2455 -235.867 111.861Z" stroke="#ECA2B4" stroke-width="3"/>
<path opacity="0.54625" d="M-231.716 119.524C-436.681 134.624 -408.793 320.231 -369.229 411.147C-229.256 639.778 -76.1934 474.12 -109.94 318.433C-143.687 162.745 147.011 329.564 216.449 141.681C296.965 -76.1754 24.4895 100.648 -231.716 119.524Z" stroke="#ECA2B4" stroke-width="3"/>
<path opacity="0.505" d="M-227.876 127.308C-433.324 136.198 -412.925 322.536 -377.045 414.593C-246.362 647.319 -86.7231 486.393 -114.182 329.779C-141.64 173.166 142.165 348.678 219.124 163.011C308.362 -52.2774 28.9337 116.195 -227.876 127.308Z" stroke="#ECA2B4" stroke-width="3"/>
<path opacity="0.46375" d="M-224.35 135.203C-430.031 137.872 -417.146 324.713 -384.994 417.8C-263.76 654.338 -97.7396 498.34 -118.876 340.991C-140.013 183.643 136.553 367.633 220.94 184.408C318.791 -28.0492 32.7502 131.867 -224.35 135.203Z" stroke="#ECA2B4" stroke-width="3"/>
<path opacity="0.4225" d="M-221.147 143.2C-426.809 139.645 -421.454 326.762 -393.069 420.765C-281.431 660.827 -109.232 509.946 -124.021 352.054C-138.811 194.162 130.18 386.408 221.892 205.847C328.236 -3.52023 35.9317 147.644 -221.147 143.2Z" stroke="#ECA2B4" stroke-width="3"/>
<path opacity="0.38125" d="M-218.265 151.29C-423.659 141.514 -425.841 328.68 -401.257 423.484C-299.351 666.777 -121.183 521.198 -129.607 362.955C-138.031 204.711 123.056 404.978 221.982 227.302C336.689 21.2796 38.4778 163.509 -218.265 151.29Z" stroke="#ECA2B4" stroke-width="3"/>
<path opacity="0.34" d="M-215.712 159.461C-420.588 143.478 -430.303 330.463 -409.551 425.953C-317.502 672.181 -133.581 532.081 -135.63 373.679C-137.678 215.277 115.188 423.321 221.206 248.747C344.138 46.32 40.382 179.44 -215.712 159.461Z" stroke="#ECA2B4" stroke-width="3"/>
<path opacity="0.29875" d="M-213.49 167.705C-417.597 145.533 -434.834 332.11 -417.939 428.17C-335.858 677.033 -146.41 542.583 -142.08 384.215C-137.75 225.848 106.587 441.416 219.568 270.155C350.574 71.5706 41.6444 195.42 -213.49 167.705Z" stroke="#ECA2B4" stroke-width="3"/>
<path opacity="0.2575" d="M-211.6 176.011C-414.69 147.677 -439.428 333.619 -426.41 430.132C-354.399 681.327 -159.653 552.69 -148.95 394.55C-138.247 236.41 97.2623 459.239 217.069 291.5C355.99 97.0005 42.2628 211.428 -211.6 176.011Z" stroke="#ECA2B4" stroke-width="3"/>
<path opacity="0.21625" d="M-210.046 184.369C-411.872 149.908 -444.08 334.989 -434.955 431.837C-373.1 685.057 -173.294 562.39 -156.231 404.67C-139.169 246.951 87.2266 476.769 213.713 312.757C360.38 122.579 42.2369 227.445 -210.046 184.369Z" stroke="#ECA2B4" stroke-width="3"/>
<path opacity="0.175" d="M-208.829 192.769C-409.145 152.223 -448.784 336.216 -443.565 433.281C-391.941 688.219 -187.319 571.672 -163.917 414.564C-140.515 257.457 76.4902 493.984 209.503 333.899C363.736 148.274 41.5653 243.451 -208.829 192.769Z" stroke="#ECA2B4" stroke-width="3"/>
<path opacity="0.13375" d="M-207.952 201.201C-406.513 154.619 -453.535 337.301 -452.226 434.465C-410.898 690.809 -201.708 580.524 -171.996 424.22C-142.283 267.916 65.0678 510.865 204.444 354.901C366.056 174.056 40.2501 259.427 -207.952 201.201Z" stroke="#ECA2B4" stroke-width="3"/>
<path opacity="0.0925" d="M-207.414 209.654C-403.979 157.093 -458.327 338.241 -460.931 435.385C-429.947 692.823 -216.445 588.934 -180.458 433.625C-144.471 278.315 52.9728 527.389 198.543 375.738C367.337 199.891 38.2925 275.354 -207.414 209.654Z" stroke="#ECA2B4" stroke-width="3"/>
<path opacity="0.05125" d="M-207.217 218.118C-401.546 159.643 -463.154 339.036 -469.667 436.042C-449.066 694.261 -231.511 596.894 -189.294 442.768C-147.077 288.642 40.22 543.538 191.807 396.383C367.577 225.75 35.695 291.212 -207.217 218.118Z" stroke="#ECA2B4" stroke-width="3"/>
<path opacity="0.01" d="M-207.361 226.583C-399.218 162.264 -468.01 339.684 -478.424 436.434C-468.231 695.119 -246.889 604.394 -198.493 451.638C-150.096 298.883 26.8247 559.29 184.243 416.811C366.776 251.601 32.4605 306.982 -207.361 226.583Z" stroke="#ECA2B4" stroke-width="3"/>
</g>
</g>
<defs>
<linearGradient id="paint0_linear_47_794" x1="269.479" y1="499.54" x2="269.479" y2="556.824" gradientUnits="userSpaceOnUse">
<stop/>
<stop offset="1" stop-color="#D9D9D9" stop-opacity="0"/>
</linearGradient>
<linearGradient id="paint1_linear_47_794" x1="269.479" y1="499.54" x2="269.479" y2="556.824" gradientUnits="userSpaceOnUse">
<stop stop-color="#CB448D"/>
<stop offset="1" stop-color="#D9D9D9" stop-opacity="0"/>
</linearGradient>
<linearGradient id="paint2_linear_47_794" x1="313.11" y1="397.919" x2="313.11" y2="440.705" gradientUnits="userSpaceOnUse">
<stop/>
<stop offset="1" stop-color="#D9D9D9" stop-opacity="0"/>
</linearGradient>
<linearGradient id="paint3_linear_47_794" x1="313.11" y1="397.919" x2="313.11" y2="440.705" gradientUnits="userSpaceOnUse">
<stop stop-color="#CB448D"/>
<stop offset="1" stop-color="#D9D9D9" stop-opacity="0"/>
</linearGradient>
</defs>
</svg>
