<svg width="41" height="36" viewBox="0 0 41 36" fill="none" xmlns="http://www.w3.org/2000/svg">
<path fill-rule="evenodd" clip-rule="evenodd" d="M23.6535 35.724L30.5918 24.9641C30.7179 24.7685 30.7192 24.5181 30.5951 24.3213L15.4413 0.281175C15.331 0.106218 15.1381 0 14.9305 0H0.603947C0.126575 0 -0.161483 0.525797 0.0971488 0.925067L22.6392 35.7251C22.8769 36.0921 23.4165 36.0915 23.6535 35.724ZM41 7.30185C41 8.99162 40.4168 10.5473 39.4376 11.7847L34.5081 19.1674C34.4978 19.0664 34.4903 18.9561 34.4822 18.838L34.4822 18.8378C34.4295 18.066 34.3541 16.9622 33.3488 15.9728C32.9449 15.5753 32.0416 15.0326 31.2087 14.5322C30.6894 14.2202 30.1975 13.9247 29.871 13.691L29.9498 13.6711C27.6888 12.42 26.1613 10.0365 26.1613 7.30185C26.1613 3.26915 29.483 0 33.5806 0C37.6782 0 41 3.26915 41 7.30185Z" fill="white"/>
</svg>
