<svg width="187" height="63" viewBox="0 0 187 63" fill="none" xmlns="http://www.w3.org/2000/svg">
<path d="M177.902 0H8.18688C3.66539 0 0 3.66539 0 8.18688V54.8131C0 59.3346 3.66539 63 8.18688 63H177.902C182.424 63 186.089 59.3346 186.089 54.8131V8.18688C186.089 3.66539 182.424 0 177.902 0Z" fill="#E34677"/>
<path d="M58.0815 19.9603C57.3278 19.5445 56.743 18.9727 56.3142 18.2385C55.8853 17.5043 55.6709 16.6856 55.6709 15.7759C55.6709 14.8663 55.8853 14.0476 56.3142 13.3134C56.743 12.5792 57.3343 12.0074 58.088 11.5915C58.8417 11.1757 59.6929 10.9678 60.6285 10.9678C61.3302 10.9678 61.98 11.0847 62.5713 11.3186C63.1625 11.5526 63.6693 11.8969 64.0852 12.3452L63.4484 12.982C62.7077 12.2348 61.7786 11.8644 60.6545 11.8644C59.9073 11.8644 59.225 12.0334 58.6143 12.3777C58.0035 12.7221 57.5227 13.1899 57.1783 13.7812C56.834 14.3725 56.6585 15.0417 56.6585 15.7759C56.6585 16.5102 56.834 17.1794 57.1783 17.7772C57.5227 18.3685 58.0035 18.8428 58.6143 19.1806C59.225 19.5185 59.9073 19.6939 60.6545 19.6939C61.7916 19.6939 62.7207 19.3171 63.4484 18.5569L64.0852 19.1936C63.6693 19.642 63.1625 19.9863 62.5648 20.2267C61.967 20.4672 61.3172 20.5841 60.6155 20.5841C59.6799 20.5841 58.8352 20.3762 58.0815 19.9603Z" fill="white"/>
<path d="M68.497 17.3415H66.8791V20.4993H65.9175V13.3975H66.8791V16.5163H68.51L71.0115 13.3975H72.0511L69.2572 16.8411L72.2526 20.4993H71.1155L68.497 17.3415Z" fill="white"/>
<path d="M78.2042 14.0413C78.698 14.5026 78.9449 15.1913 78.9449 16.101V20.4998H78.0287V19.3952C77.8143 19.7656 77.4959 20.0515 77.0801 20.2594C76.6643 20.4673 76.1639 20.5713 75.5857 20.5713C74.793 20.5713 74.1627 20.3829 73.6949 20.006C73.2271 19.6291 72.9932 19.1288 72.9932 18.5051C72.9932 17.8813 73.2076 17.4135 73.6494 17.0496C74.0847 16.6793 74.78 16.4973 75.7351 16.4973H77.9898V16.0685C77.9898 15.4577 77.8208 14.9899 77.4765 14.6715C77.1321 14.3532 76.6318 14.1907 75.9755 14.1907C75.5272 14.1907 75.0919 14.2622 74.6825 14.4116C74.2667 14.5611 73.9093 14.7625 73.6169 15.0289L73.1881 14.3142C73.5455 14.0088 73.9808 13.7684 74.4811 13.6059C74.9879 13.437 75.5142 13.3525 76.073 13.3525C77.0021 13.3525 77.7104 13.5865 78.2042 14.0478V14.0413ZM77.1256 19.4407C77.5154 19.1938 77.8013 18.8364 77.9898 18.3686V17.2056H75.7611C74.5461 17.2056 73.9353 17.6279 73.9353 18.4726C73.9353 18.8884 74.0912 19.2133 74.4096 19.4537C74.7215 19.6941 75.1633 19.8111 75.7351 19.8111C76.3069 19.8111 76.7357 19.6876 77.1256 19.4407Z" fill="white"/>
<path d="M86.859 13.4043V20.5061H85.9039V17.5497C85.0852 17.9071 84.2795 18.089 83.4868 18.089C82.6291 18.089 81.9664 17.8941 81.4921 17.5042C81.0113 17.1144 80.7773 16.5231 80.7773 15.7434V13.4108H81.7325V15.6914C81.7325 16.2242 81.9014 16.6271 82.2458 16.9C82.5901 17.1729 83.058 17.3093 83.6622 17.3093C84.325 17.3093 85.0722 17.1339 85.9039 16.783V13.4108H86.859V13.4043Z" fill="white"/>
<path d="M94.1622 14.0413C94.656 14.5026 94.9029 15.1913 94.9029 16.101V20.4998H93.9868V19.3952C93.7723 19.7656 93.454 20.0515 93.0381 20.2594C92.6223 20.4673 92.122 20.5713 91.5437 20.5713C90.751 20.5713 90.1207 20.3829 89.6529 20.006C89.1851 19.6291 88.9512 19.1288 88.9512 18.5051C88.9512 17.8813 89.1656 17.4135 89.6074 17.0496C90.0428 16.6793 90.738 16.4973 91.6931 16.4973H93.9478V16.0685C93.9478 15.4577 93.7788 14.9899 93.4345 14.6715C93.0901 14.3532 92.5898 14.1907 91.9335 14.1907C91.4852 14.1907 91.0499 14.2622 90.6405 14.4116C90.2247 14.5611 89.8673 14.7625 89.5749 15.0289L89.1461 14.3142C89.5035 14.0088 89.9388 13.7684 90.4391 13.6059C90.9459 13.437 91.4722 13.3525 92.031 13.3525C92.9601 13.3525 93.6684 13.5865 94.1622 14.0478V14.0413ZM93.0836 19.4407C93.4734 19.1938 93.7593 18.8364 93.9478 18.3686V17.2056H91.7191C90.5041 17.2056 89.8933 17.6279 89.8933 18.4726C89.8933 18.8884 90.0492 19.2133 90.3676 19.4537C90.6795 19.6941 91.1213 19.8111 91.6931 19.8111C92.2649 19.8111 92.6937 19.6876 93.0836 19.4407Z" fill="white"/>
<path d="M102.453 14.2555H99.7631V20.5061H98.808V14.2555H96.1245V13.4043H102.46V14.2555H102.453Z" fill="white"/>
<path d="M108.925 16.5101C109.386 16.9 109.62 17.4523 109.62 18.1865C109.62 18.9207 109.373 19.525 108.873 19.9278C108.373 20.3307 107.651 20.5321 106.709 20.5191L103.844 20.5061V13.4043H104.805V15.8864L106.898 15.9123C107.788 15.9188 108.463 16.1203 108.931 16.5036L108.925 16.5101ZM108.139 19.395C108.476 19.1221 108.645 18.7193 108.645 18.1865C108.645 17.6537 108.476 17.2768 108.145 17.0234C107.814 16.77 107.313 16.6401 106.644 16.6336L104.792 16.6076V19.7654L106.644 19.7914C107.3 19.7979 107.801 19.6679 108.139 19.395Z" fill="white"/>
<path d="M114.98 13.4043H115.942V19.0506L120.679 13.4043H121.53V20.5061H120.568V14.8597L115.845 20.5061H114.98V13.4043Z" fill="white"/>
<path d="M128.749 17.4134C129.021 17.6993 129.158 18.0502 129.158 18.466C129.158 18.8819 129.015 19.2457 128.729 19.5706C128.443 19.8955 128.06 20.1424 127.572 20.3178C127.085 20.4932 126.552 20.5842 125.968 20.5842C125.454 20.5842 124.947 20.5127 124.454 20.3633C123.96 20.2138 123.525 19.9994 123.161 19.707L123.486 18.9923C123.81 19.2327 124.187 19.4211 124.623 19.5576C125.058 19.694 125.493 19.759 125.935 19.759C126.591 19.759 127.131 19.6356 127.546 19.3887C127.962 19.1418 128.177 18.8039 128.177 18.3815C128.177 18.0047 128.008 17.7058 127.663 17.4979C127.319 17.29 126.851 17.1795 126.26 17.1795H125.045V16.4778H126.208C126.741 16.4778 127.17 16.3738 127.494 16.1724C127.819 15.971 127.982 15.6981 127.982 15.3537C127.982 14.9768 127.8 14.678 127.436 14.4635C127.072 14.2491 126.598 14.1387 126.013 14.1387C125.246 14.1387 124.493 14.3336 123.745 14.7169L123.473 13.9762C124.317 13.5344 125.194 13.3135 126.104 13.3135C126.643 13.3135 127.131 13.3914 127.566 13.5474C128.001 13.7033 128.346 13.9307 128.593 14.2166C128.839 14.5025 128.963 14.8404 128.963 15.2173C128.963 15.5941 128.839 15.8995 128.593 16.1789C128.346 16.4583 128.008 16.6662 127.585 16.8026C128.092 16.9196 128.476 17.121 128.755 17.4134H128.749Z" fill="white"/>
<path d="M13.5148 33.6962C13.4888 27.3156 15.633 23.794 19.616 22.28C21.4028 21.5978 23.2221 21.5198 24.892 22.3905C27.1076 23.547 29.1283 23.2677 31.3245 22.3255C34.5018 20.9675 37.4322 21.7017 40.0572 23.8849C40.9798 24.6516 41.1877 25.1389 40.0897 26.0941C36.0807 29.5702 36.607 35.6519 41.1228 38.4329C42.0259 38.9852 42.0129 39.388 41.6751 40.2132C40.6939 42.6303 39.31 44.8004 37.5426 46.6977C36.0612 48.2831 34.2484 48.8419 32.1627 47.8478C29.6092 46.6262 27.0816 46.6977 24.5411 47.9193C22.6633 48.8224 21.0064 48.3676 19.603 46.9056C15.7045 42.8512 13.7032 38.004 13.5083 33.6897L13.5148 33.6962Z" fill="white"/>
<path d="M90.6208 46.6842C90.6208 48.8154 90.5559 50.6152 90.6468 52.4085C90.7118 53.6235 89.9386 53.4221 89.2694 53.3636C88.6261 53.3052 87.658 53.838 87.658 52.4475C87.658 46.8531 87.6255 41.2523 87.567 35.6579C87.5605 34.9757 87.8269 34.7222 88.4247 34.8652C89.0225 35.0146 89.9191 34.3129 90.192 35.411C90.283 35.7748 90.2505 36.1712 90.2895 36.8209C91.4135 35.5344 92.6351 34.7612 94.1945 34.5793C97.0274 34.2414 99.386 36.1062 100.127 39.3225C101.036 43.2665 99.3795 46.9896 96.1892 48.0877C94.2075 48.7699 92.4142 48.3475 90.6208 46.6842ZM90.6208 41.5966H90.6468C90.6468 42.0904 90.5949 42.5842 90.6533 43.0716C90.8483 44.7024 91.9788 45.8655 93.4733 46.0149C94.9937 46.1709 96.2932 45.3132 96.9105 43.7798C97.2483 42.9416 97.2613 42.0709 97.2483 41.1938C97.2158 38.6013 95.9098 36.9054 93.9606 36.8859C91.9009 36.8599 90.6273 38.5298 90.6144 41.2653C90.6144 41.3757 90.6144 41.4862 90.6144 41.5966H90.6208Z" fill="white"/>
<path d="M75.3843 46.7367C75.3843 48.7184 75.2738 50.4792 75.4168 52.2206C75.5337 53.624 74.7021 53.3706 73.8964 53.3901C73.0192 53.4161 72.3824 53.4681 72.4019 52.1556C72.4669 46.7172 72.4019 41.2723 72.3564 35.8338C72.3564 35.1906 72.4149 34.6838 73.1946 34.8657C73.8184 35.0086 74.858 34.2484 74.975 35.6064C75.0009 35.9248 75.0399 36.2367 75.0854 36.711C75.9301 36.0093 76.5603 35.2426 77.509 34.9112C80.6928 33.8131 83.6621 35.314 84.6563 38.5563C85.4944 41.2853 85.28 43.9168 83.5517 46.2364C81.5959 48.8549 78.3082 49.0693 75.3843 46.7367ZM82.0183 41.3567C82.0183 40.3561 81.9208 39.388 81.3685 38.5108C80.2899 36.7955 78.4056 36.3796 76.8397 37.5427C74.8125 39.0371 74.7151 43.8518 76.6903 45.4047C77.4765 46.0219 78.3796 46.1584 79.3413 45.9245C81.0956 45.5021 82.0313 43.9103 82.0183 41.3632V41.3567Z" fill="white"/>
<path d="M54.3975 47.9261C55.645 44.0471 56.873 40.194 58.1205 36.341C58.7248 34.4632 59.4135 32.6114 59.9333 30.7076C60.2062 29.7005 60.8235 29.5186 61.6227 29.694C62.5064 29.8954 63.7084 28.9793 64.2152 30.6037C65.9306 36.0941 67.7239 41.565 69.5237 47.0294C69.7901 47.8416 69.6601 48.017 68.8025 48.082C67.373 48.1925 66.5933 47.8611 66.119 46.3017C64.9819 42.5851 64.865 42.7151 60.96 42.5721C59.3551 42.5136 58.6338 43.0139 58.4714 44.5474C58.4259 44.9762 58.2115 45.3855 58.0751 45.8014C57.5336 47.4258 56.3077 48.1318 54.3975 47.9196V47.9261ZM61.9736 32.3515C61.5642 33.8459 61.2653 35.048 60.895 36.2305C59.942 39.2627 60.1222 39.1389 63.4316 38.8357C62.6389 36.2692 62.8507 35.2039 61.9671 32.3515H61.9736Z" fill="white"/>
<path d="M112.719 29.4343C113.531 29.5447 114.343 29.6747 115.162 29.7592C116.689 29.9216 116.715 30.6883 116.169 31.8839C115.903 32.4751 115.721 32.6376 115.11 32.3777C114.194 31.9943 113.226 31.7994 112.219 31.8709C110.952 31.9683 109.782 32.2607 109.399 33.6642C109.002 35.1391 109.789 36.0813 111.023 36.7115C112.245 37.3288 113.525 37.8356 114.714 38.4983C116.624 39.5574 117.547 41.2468 117.313 43.4235C117.079 45.6391 115.851 47.101 113.694 47.8418C111.452 48.6085 109.288 48.4265 107.073 47.7443C105.806 47.3545 106.079 46.6592 106.319 45.7301C106.631 44.515 107.242 45.0088 107.878 45.3012C109.23 45.925 110.659 45.9445 112.082 45.7366C113.2 45.5741 114.032 44.9374 114.285 43.8003C114.532 42.7152 114.265 41.7406 113.33 41.0129C112.407 40.2916 111.303 39.9408 110.25 39.4925C106.767 38.0045 105.351 35.1521 106.832 32.3387C108.06 30.0061 110.243 29.4213 112.713 29.4278L112.719 29.4343Z" fill="white"/>
<path d="M141.769 41.3704C141.75 45.4963 138.982 48.4007 135.09 48.3747C131.367 48.3487 128.677 45.4313 128.716 41.4549C128.761 37.3939 131.458 34.587 135.33 34.5675C139.157 34.548 141.782 37.3224 141.769 41.3704ZM138.624 41.7862C138.559 40.7791 138.598 39.8955 138.248 39.0638C137.708 37.7838 136.955 36.8286 135.395 36.7571C133.764 36.6857 132.809 37.5498 132.257 38.9078C131.64 40.4218 131.627 42.0266 132.12 43.5666C132.595 45.0675 133.504 46.1786 135.291 46.1396C137.085 46.1006 137.864 44.8921 138.365 43.4236C138.553 42.8648 138.559 42.2411 138.631 41.7862H138.624Z" fill="white"/>
<path d="M159.963 42.1428C158.917 42.1428 157.864 42.2208 156.824 42.1233C155.583 42.0064 155.395 42.4742 155.778 43.5333C156.356 45.1187 157.539 45.8529 159.137 46.0283C160.19 46.1453 161.236 46.0024 162.25 45.736C162.938 45.554 163.38 45.515 163.523 46.3792C163.64 47.0874 163.757 47.5813 162.783 47.8282C161.431 48.166 160.086 48.4454 158.709 48.3155C156.188 48.0686 154.173 47.0225 153.238 44.4949C152.159 41.5775 152.529 38.8291 154.55 36.464C156.175 34.5667 158.345 34.2158 160.723 34.8201C163.705 35.5868 164.732 39.141 164.413 41.5905C164.329 42.2598 163.861 42.1428 163.432 42.1493C162.276 42.1493 161.119 42.1493 159.963 42.1493V42.1428ZM158.598 40.0766C158.93 40.0766 159.274 40.1416 159.586 40.0636C160.261 39.8947 161.36 40.5704 161.568 39.6153C161.808 38.4977 161.165 37.4711 160.106 36.8928C158.754 36.1651 157.045 36.6784 156.246 38.0494C155.928 38.5952 155.382 39.2319 155.752 39.8557C156.038 40.343 156.759 40.0181 157.286 40.0636C157.721 40.1026 158.169 40.0701 158.605 40.0701L158.598 40.0766Z" fill="white"/>
<path d="M120.978 41.2265C120.978 40.2388 120.932 39.2512 120.991 38.2636C121.042 37.4059 120.874 36.8926 119.86 37.0161C118.885 37.133 119.074 36.3923 119.028 35.8075C118.976 35.1318 119.158 34.7224 119.918 34.8524C121.023 35.0408 121.004 34.3651 120.991 33.5854C120.978 32.6172 122.667 31.3567 123.57 31.6296C124.2 31.8181 123.927 32.3898 123.875 32.7342C123.642 34.3651 124.116 35.2033 125.916 34.8589C126.669 34.7159 127.124 34.8914 127.111 35.8595C127.098 36.7952 126.819 37.211 125.883 37.0421C124.207 36.7237 123.7 37.4059 123.862 39.0563C124.018 40.6287 123.895 42.2336 123.914 43.8255C123.927 45.112 124.428 45.9632 125.883 45.8332C126.5 45.7812 126.981 45.8072 126.91 46.6324C126.851 47.2951 127.17 48.0099 126.085 48.2698C123.401 48.913 121.218 47.4446 121.017 44.6831C120.932 43.5396 121.004 42.383 121.004 41.2265H120.971H120.978Z" fill="white"/>
<path d="M146.922 37.0363C147.91 35.6329 148.793 34.7687 150.145 34.5933C150.723 34.5218 151.399 34.4828 151.269 35.3015C151.152 36.0097 151.97 37.1338 150.547 37.3807C148.098 37.803 147.364 38.5567 147.273 41.0453C147.201 43.0205 147.188 45.0088 147.273 46.984C147.325 48.2575 146.532 48.0496 145.772 48.0626C144.979 48.0756 144.303 48.1926 144.323 46.945C144.381 43.209 144.323 39.4664 144.264 35.7303C144.258 35.1131 144.381 34.7102 145.044 34.8661C145.642 35.0026 146.539 34.3074 146.798 35.4249C146.883 35.7823 146.863 36.1657 146.922 37.0363Z" fill="white"/>
<path d="M34.7489 14.3268C34.6124 17.6536 32.1304 20.532 28.9985 21.2337C27.8485 21.4936 27.686 21.0518 27.751 20.0642C27.9589 17.1403 30.6879 14.0085 33.5728 13.4172C34.4695 13.2288 35.0088 13.3522 34.7489 14.3268Z" fill="white"/>
</svg>
