<svg width="64" height="56" viewBox="0 0 64 56" fill="none" xmlns="http://www.w3.org/2000/svg">
<path fill-rule="evenodd" clip-rule="evenodd" d="M36.851 55.2075L47.6606 38.5793C47.857 38.277 47.859 37.89 47.6657 37.5858L24.0568 0.434524C23.885 0.164148 23.5844 0 23.2611 0H0.940921C0.197198 0 -0.251582 0.812561 0.151353 1.42959L35.2708 55.2091C35.6412 55.7763 36.4818 55.7755 36.851 55.2075ZM63.8761 11.2842C63.8761 13.8956 62.9674 16.2997 61.442 18.2119L53.762 29.621C53.746 29.465 53.7342 29.2946 53.7217 29.1121L53.7217 29.1117C53.6396 27.9191 53.5221 26.2132 51.9559 24.6842C51.3265 24.0698 49.9193 23.2312 48.6217 22.4579C47.8126 21.9757 47.0462 21.519 46.5376 21.1579L46.6604 21.1272C43.1378 19.1937 40.758 15.5103 40.758 11.2842C40.758 5.0521 45.9332 0 52.3171 0C58.7009 0 63.8761 5.0521 63.8761 11.2842Z" fill="url(#paint0_radial_47_895)"/>
<defs>
<radialGradient id="paint0_radial_47_895" cx="0" cy="0" r="1" gradientUnits="userSpaceOnUse" gradientTransform="translate(-2.03256 44.9927) rotate(-30.1703) scale(76.236 72.3169)">
<stop stop-color="#FFDD55"/>
<stop offset="0.1" stop-color="#FFDD55"/>
<stop offset="0.5" stop-color="#FF543E"/>
<stop offset="1" stop-color="#C837AB"/>
</radialGradient>
</defs>
</svg>
