<svg width="187" height="63" viewBox="0 0 187 63" fill="none" xmlns="http://www.w3.org/2000/svg">
<path d="M178.491 0H8.77575C4.25426 0 0.588867 3.66539 0.588867 8.18688V54.8131C0.588867 59.3346 4.25426 63 8.77575 63H178.491C183.013 63 186.678 59.3346 186.678 54.8131V8.18688C186.678 3.66539 183.013 0 178.491 0Z" fill="#E34677"/>
<path d="M58.6703 19.9604C57.9166 19.5445 57.3319 18.9727 56.903 18.2385C56.4742 17.5043 56.2598 16.6856 56.2598 15.7759C56.2598 14.8663 56.4742 14.0476 56.903 13.3134C57.3319 12.5792 57.9231 12.0074 58.6768 11.5915C59.4306 11.1757 60.2817 10.9678 61.2174 10.9678C61.9191 10.9678 62.5689 11.0847 63.1601 11.3186C63.7514 11.5526 64.2582 11.8969 64.6741 12.3453L64.0373 12.982C63.2966 12.2348 62.3674 11.8644 61.2434 11.8644C60.4962 11.8644 59.8139 12.0334 59.2031 12.3777C58.5924 12.7221 58.1116 13.1899 57.7672 13.7812C57.4228 14.3725 57.2474 15.0417 57.2474 15.7759C57.2474 16.5102 57.4228 17.1794 57.7672 17.7772C58.1116 18.3685 58.5924 18.8428 59.2031 19.1806C59.8139 19.5185 60.4962 19.694 61.2434 19.694C62.3804 19.694 63.3096 19.3171 64.0373 18.5569L64.6741 19.1936C64.2582 19.642 63.7514 19.9863 63.1536 20.2267C62.5559 20.4672 61.9061 20.5841 61.2044 20.5841C60.2687 20.5841 59.4241 20.3762 58.6703 19.9604Z" fill="white"/>
<path d="M69.0922 17.3424H67.4743V20.5002H66.5127V13.3984H67.4743V16.5173H69.1052L71.6068 13.3984H72.6464L69.8524 16.8421L72.8478 20.5002H71.7107L69.0922 17.3424Z" fill="white"/>
<path d="M78.7994 14.0413C79.2932 14.5026 79.5401 15.1913 79.5401 16.101V20.4998H78.624V19.3952C78.4095 19.7656 78.0912 20.0515 77.6753 20.2594C77.2595 20.4673 76.7592 20.5713 76.1809 20.5713C75.3882 20.5713 74.7579 20.3829 74.2901 20.006C73.8223 19.6291 73.5884 19.1288 73.5884 18.5051C73.5884 17.8813 73.8028 17.4135 74.2446 17.0496C74.68 16.6793 75.3752 16.4973 76.3303 16.4973H78.585V16.0685C78.585 15.4577 78.416 14.9899 78.0717 14.6715C77.7273 14.3532 77.227 14.1907 76.5707 14.1907C76.1224 14.1907 75.6871 14.2622 75.2777 14.4116C74.8619 14.5611 74.5045 14.7625 74.2121 15.0289L73.7833 14.3142C74.1407 14.0088 74.576 13.7684 75.0763 13.6059C75.5831 13.437 76.1094 13.3525 76.6682 13.3525C77.5973 13.3525 78.3056 13.5864 78.7994 14.0478V14.0413ZM77.7208 19.4407C78.1107 19.1938 78.3965 18.8364 78.585 18.3686V17.2056H76.3563C75.1413 17.2056 74.5305 17.6279 74.5305 18.4726C74.5305 18.8884 74.6865 19.2133 75.0048 19.4537C75.3167 19.6941 75.7586 19.8111 76.3303 19.8111C76.9021 19.8111 77.331 19.6876 77.7208 19.4407Z" fill="white"/>
<path d="M87.4479 13.3984V20.5002H86.4928V17.5439C85.6741 17.9012 84.8684 18.0832 84.0757 18.0832C83.218 18.0832 82.5553 17.8882 82.0809 17.4984C81.6001 17.1085 81.3662 16.5173 81.3662 15.7375V13.4049H82.3213V15.6856C82.3213 16.2184 82.4903 16.6212 82.8346 16.8941C83.179 17.167 83.6468 17.3034 84.2511 17.3034C84.9138 17.3034 85.6611 17.128 86.4928 16.7771V13.4049H87.4479V13.3984Z" fill="white"/>
<path d="M94.7579 14.0413C95.2517 14.5026 95.4986 15.1913 95.4986 16.101V20.4998H94.5825V19.3952C94.368 19.7656 94.0497 20.0515 93.6338 20.2594C93.218 20.4673 92.7177 20.5713 92.1394 20.5713C91.3467 20.5713 90.7164 20.3829 90.2486 20.006C89.7808 19.6291 89.5469 19.1288 89.5469 18.5051C89.5469 17.8813 89.7613 17.4135 90.2031 17.0496C90.6385 16.6793 91.3337 16.4973 92.2888 16.4973H94.5435V16.0685C94.5435 15.4577 94.3745 14.9899 94.0302 14.6715C93.6858 14.3532 93.1855 14.1907 92.5292 14.1907C92.0809 14.1907 91.6456 14.2622 91.2362 14.4116C90.8204 14.5611 90.463 14.7625 90.1706 15.0289L89.7418 14.3142C90.0992 14.0088 90.5345 13.7684 91.0348 13.6059C91.5416 13.437 92.0679 13.3525 92.6267 13.3525C93.5558 13.3525 94.2641 13.5864 94.7579 14.0478V14.0413ZM93.6793 19.4407C94.0692 19.1938 94.355 18.8364 94.5435 18.3686V17.2056H92.3148C91.0998 17.2056 90.489 17.6279 90.489 18.4726C90.489 18.8884 90.645 19.2133 90.9633 19.4537C91.2752 19.6941 91.717 19.8111 92.2888 19.8111C92.8606 19.8111 93.2894 19.6876 93.6793 19.4407Z" fill="white"/>
<path d="M103.048 14.2496H100.358V20.5002H99.4032V14.2496H96.7197V13.3984H103.055V14.2496H103.048Z" fill="white"/>
<path d="M109.52 16.5043C109.981 16.8941 110.215 17.4464 110.215 18.1806C110.215 18.9148 109.968 19.5191 109.468 19.9219C108.968 20.3248 108.247 20.5262 107.304 20.5132L104.439 20.5002V13.3984H105.401V15.8805L107.493 15.9065C108.383 15.913 109.059 16.1144 109.527 16.4978L109.52 16.5043ZM108.734 19.3892C109.072 19.1163 109.241 18.7134 109.241 18.1806C109.241 17.6478 109.072 17.271 108.74 17.0176C108.409 16.7642 107.909 16.6342 107.239 16.6277L105.388 16.6017V19.7595L107.239 19.7855C107.896 19.792 108.396 19.6621 108.734 19.3892Z" fill="white"/>
<path d="M115.576 13.3984H116.537V19.0448L121.274 13.3984H122.125V20.5002H121.164V14.8539L116.44 20.5002H115.576V13.3984Z" fill="white"/>
<path d="M129.337 17.4076C129.61 17.6934 129.747 18.0443 129.747 18.4601C129.747 18.876 129.604 19.2399 129.318 19.5647C129.032 19.8896 128.649 20.1365 128.161 20.3119C127.674 20.4874 127.141 20.5783 126.556 20.5783C126.043 20.5783 125.536 20.5069 125.043 20.3574C124.549 20.208 124.113 19.9936 123.75 19.7012L124.074 18.9865C124.399 19.2269 124.776 19.4153 125.211 19.5517C125.647 19.6882 126.082 19.7532 126.524 19.7532C127.18 19.7532 127.719 19.6297 128.135 19.3828C128.551 19.1359 128.766 18.798 128.766 18.3757C128.766 17.9988 128.597 17.6999 128.252 17.492C127.908 17.2841 127.44 17.1736 126.849 17.1736H125.634V16.4719H126.797C127.33 16.4719 127.758 16.3679 128.083 16.1665C128.408 15.9651 128.571 15.6922 128.571 15.3478C128.571 14.971 128.389 14.6721 128.025 14.4577C127.661 14.2433 127.187 14.1328 126.602 14.1328C125.835 14.1328 125.082 14.3277 124.334 14.7111L124.061 13.9704C124.906 13.5285 125.783 13.3076 126.693 13.3076C127.232 13.3076 127.719 13.3856 128.155 13.5415C128.59 13.6975 128.935 13.9249 129.181 14.2108C129.428 14.4967 129.552 14.8345 129.552 15.2114C129.552 15.5882 129.428 15.8936 129.181 16.173C128.935 16.4524 128.597 16.6603 128.174 16.7968C128.681 16.9137 129.064 17.1152 129.344 17.4076H129.337Z" fill="white"/>
<path d="M13.2264 49.0363C12.4402 48.5619 12.4272 47.7433 12.4272 46.996C12.4272 38.2894 12.4597 29.5762 12.4857 20.8695C13.4214 20.785 13.9867 21.3698 14.5779 21.9676C18.366 25.7751 22.1735 29.5632 25.9746 33.3577C26.4359 33.8191 26.8323 34.3649 27.5015 34.5663C22.7453 39.3874 17.9826 44.2151 13.2264 49.0363Z" fill="#01D3FD"/>
<path d="M68.813 36.0934C69.5862 36.0934 70.353 36.0934 71.1262 36.0934C73.0689 36.0934 73.2443 36.2884 73.0754 38.2831C72.6726 42.9743 69.5862 46.0021 65.0965 46.1191C60.1713 46.2426 55.9869 43.0003 55.3632 38.5105C54.8174 34.5795 56.2208 31.4217 59.5671 29.3295C62.8288 27.2893 66.24 27.2633 69.5343 29.388C70.0086 29.6934 71.1457 29.9533 70.301 30.9149C69.7552 31.5387 69.3458 32.4613 68.0788 31.5906C65.5383 29.8558 62.5169 30.1482 60.2948 32.078C58.1311 33.9492 57.4619 37.0875 58.6639 39.7515C59.8335 42.344 62.452 43.832 65.4018 43.4876C67.507 43.2407 69.1314 42.2466 70.0151 40.2258C70.4439 39.2512 70.4114 38.6664 69.0859 38.7509C67.9359 38.8289 66.7663 38.7054 65.6163 38.7834C64.5767 38.8484 64.4662 38.3156 64.4662 37.4839C64.4662 36.6067 64.5182 35.9765 65.6812 36.0739C66.7208 36.1649 67.7734 36.0934 68.8195 36.0934H68.813Z" fill="white"/>
<path d="M13.084 14.9314C13.9092 13.8463 14.9618 14.1062 15.8844 14.626C22.6353 18.4401 29.3603 22.3061 36.0982 26.1526C34.2984 28.0499 32.4986 29.9407 30.6923 31.838L30.1985 31.9549C24.4936 26.2826 18.7888 20.6037 13.084 14.9314Z" fill="#04EB76"/>
<path d="M30.2046 31.9548C30.367 31.9159 30.5295 31.8769 30.6984 31.8379C30.8349 32.5331 31.4261 32.884 31.855 33.3583C33.2 34.8397 34.8113 36.0613 35.9679 37.7116C33.4728 39.5959 30.6204 40.8824 27.937 42.4483C24.1034 44.6835 20.2244 46.8407 16.3519 49.0108C15.3383 49.5826 14.2727 50.1414 13.2266 49.0368C17.9827 44.2157 22.7454 39.388 27.5016 34.5668C28.4048 33.6962 29.3014 32.8255 30.2046 31.9548Z" fill="#EF3549"/>
<path d="M108.194 45.1773C105.498 46.5743 103.276 46.3729 101.398 44.638C99.6436 43.0201 99.0263 40.3561 99.8905 38.121C100.774 35.8274 102.886 34.3329 105.199 34.3524C105.42 34.3524 105.654 34.3264 105.855 34.3849C107.096 34.7423 108.266 35.2881 109.643 34.7163C110.442 34.3849 110.897 34.8592 110.878 35.8404C110.819 39.1411 110.923 42.4419 110.819 45.7361C110.728 48.647 109.364 50.4793 107.057 51.1485C104.627 51.8568 102.113 51.0966 100.703 49.1538C100.41 48.7574 99.5721 48.1532 100.449 47.7048C101.067 47.3865 101.84 46.3469 102.697 47.5684C103.633 48.8939 104.959 49.3292 106.472 48.7185C107.98 48.1142 108.337 46.8342 108.181 45.1773H108.194ZM108.448 40.3172C108.474 38.2899 107.142 36.763 105.381 36.7825C103.588 36.802 102.197 38.3159 102.191 40.2587C102.191 42.1625 103.627 43.7154 105.4 43.7219C107.103 43.7219 108.428 42.2469 108.448 40.3172Z" fill="white"/>
<path d="M132.716 37.0621C132.716 34.5866 132.742 32.111 132.703 29.6355C132.69 28.7908 132.931 28.4529 133.821 28.4789C135.692 28.5309 137.57 28.4269 139.435 28.5179C142.514 28.6738 144.685 31.0195 144.639 34.0083C144.6 36.8867 142.372 39.0764 139.344 39.2648C138.096 39.3428 136.459 38.6865 135.705 39.5702C134.938 40.4733 135.536 42.0977 135.465 43.4037C135.445 43.7871 135.413 44.1834 135.465 44.5603C135.627 45.6519 135.081 45.8208 134.133 45.8143C133.152 45.8078 132.632 45.6909 132.684 44.4888C132.788 42.0198 132.716 39.5377 132.716 37.0621ZM135.452 33.9238C135.497 37.0621 135.049 36.7373 137.511 36.7503C140.591 36.7763 141.969 35.8731 141.982 33.8914C141.995 31.9096 140.637 30.987 137.719 30.987C136.212 30.987 135.458 31.9638 135.458 33.9173L135.452 33.9238Z" fill="white"/>
<path d="M30.2046 31.9548C29.3015 32.8255 28.4048 33.6961 27.5017 34.5668C26.8324 34.3654 26.4361 33.8131 25.9747 33.3583C22.1672 29.5702 18.3661 25.7757 14.5781 21.9681C13.9868 21.3768 13.4215 20.7921 12.4859 20.87C12.5704 18.8753 11.8361 16.8026 13.0902 14.9248C18.795 20.5971 24.4998 26.276 30.2046 31.9483V31.9548Z" fill="#01C3F6"/>
<path d="M35.9677 37.7183C34.8112 36.0679 33.1933 34.8464 31.8548 33.3649C31.426 32.8906 30.8347 32.5397 30.6982 31.8445C32.4981 29.9472 34.2979 28.0565 36.1042 26.1592C38.4173 27.4457 40.7629 28.6672 43.0305 30.0382C44.7524 31.0778 44.8953 32.6957 43.2904 33.7093C40.9383 35.1907 38.5927 36.6982 35.9807 37.7248L35.9677 37.7183Z" fill="#F9C302"/>
<path d="M157.53 38.8944C156.842 36.8411 154.912 36.0549 153.45 37.244C152.54 37.9782 151.936 37.7313 151.111 37.3999C150.24 37.0556 150.396 36.6137 150.838 36.0354C151.994 34.5215 154.639 33.8783 156.913 34.5865C158.914 35.2038 160.116 36.7502 160.162 38.8554C160.201 40.6682 160.194 42.481 160.155 44.2938C160.142 44.7876 160.5 45.5543 159.778 45.7168C159.129 45.8662 158.174 46.1261 157.758 45.5283C157.296 44.8656 157.114 45.132 156.686 45.4179C156.283 45.6843 155.808 45.8922 155.334 46.0027C152.898 46.5614 150.487 45.184 150.039 43.0138C149.59 40.8371 151.13 38.9528 153.749 38.4655C154.964 38.2381 156.146 38.3551 157.53 38.9009V38.8944ZM155.484 40.5642C153.807 40.5772 152.618 41.2595 152.67 42.2146C152.735 43.4361 153.671 43.67 154.671 43.683C155.912 43.696 157.563 42.5005 157.439 41.5454C157.283 40.2783 156.101 40.7851 155.477 40.5642H155.484Z" fill="white"/>
<path d="M122.262 46.1132C118.74 46.1326 116.232 43.5596 116.342 40.038C116.453 36.5423 118.902 34.1902 122.262 34.3591C124.295 34.4566 126.238 36.0225 126.966 37.9783C127.291 38.8554 126.79 39.0244 126.206 39.2648C124.269 40.0575 122.353 40.8826 120.403 41.6429C119.409 42.0262 119.585 42.4486 120.221 43.0073C121.358 44.0015 123.139 44.0274 124.406 42.7799C125.549 41.6559 126.147 42.7539 126.712 43.2347C127.434 43.8455 126.511 44.2614 126.154 44.6122C125.088 45.6648 123.763 46.1456 122.262 46.1067V46.1132ZM118.993 39.934C120.54 39.3102 121.833 38.7904 123.119 38.2576C123.405 38.1407 123.821 38.0757 123.802 37.6664C123.782 37.231 123.366 37.0816 123.028 36.9257C121.352 36.1525 119.526 37.3675 118.993 39.9275V39.934Z" fill="white"/>
<path d="M79.8654 46.1131C76.4282 46.1261 73.8487 43.6375 73.8292 40.2783C73.8097 36.9126 76.3762 34.359 79.7744 34.3525C83.1726 34.3525 85.7652 36.9256 85.7392 40.2718C85.7067 43.579 83.1726 46.0936 79.8654 46.1066V46.1131ZM76.5387 40.2328C76.5387 42.1561 77.9421 43.683 79.7355 43.7155C81.5873 43.7415 83.0817 42.1366 83.0427 40.1678C83.0037 38.2446 81.5548 36.7501 79.7549 36.7826C77.9421 36.8086 76.5452 38.3095 76.5452 40.2393L76.5387 40.2328Z" fill="white"/>
<path d="M92.6721 46.1134C89.1959 46.1264 86.7204 43.6898 86.7139 40.2591C86.7074 36.8284 89.1894 34.3529 92.6331 34.3594C96.0313 34.3594 98.6043 36.9454 98.5589 40.3046C98.5134 43.6249 95.9988 46.1069 92.6721 46.1134ZM92.6396 36.7765C90.8268 36.757 89.4039 38.2319 89.3714 40.1617C89.3389 42.1369 90.8203 43.7483 92.6526 43.7158C94.4199 43.6898 95.8754 42.1109 95.8754 40.2267C95.8754 38.3164 94.4459 36.796 92.6331 36.7765H92.6396Z" fill="white"/>
<path d="M166.315 41.7462C167.114 39.7579 167.894 37.7827 168.699 35.8139C169.089 34.8588 170.804 34.261 171.675 34.7223C172.149 34.9757 171.87 35.2746 171.753 35.5345C169.615 40.4661 167.491 45.3978 165.314 50.3099C164.755 51.5639 163.592 50.8817 162.683 50.8817C162.332 50.8817 162.462 50.4658 162.559 50.2189C162.683 49.9135 162.78 49.5887 162.968 49.3223C164.97 46.4893 164.736 43.7149 162.968 40.8365C162.117 39.446 161.559 37.8671 160.993 36.3207C160.824 35.8594 159.798 35.0732 160.876 34.7873C161.636 34.5794 162.89 34.0791 163.443 35.4176C164.151 37.1394 164.846 38.8742 165.574 40.5896C165.736 40.9794 165.756 41.4668 166.315 41.7526V41.7462Z" fill="white"/>
<path d="M145.939 37.1011C145.939 34.632 145.997 32.1629 145.913 29.7004C145.874 28.5568 146.413 28.4918 147.31 28.4854C148.206 28.4854 148.713 28.5763 148.7 29.7004C148.642 34.6905 148.642 39.6806 148.7 44.6707C148.713 45.8987 148.024 45.7688 147.225 45.7948C146.4 45.8207 145.893 45.7233 145.919 44.6707C145.984 42.1496 145.939 39.6286 145.939 37.1011Z" fill="white"/>
<path d="M115.167 37.2698C115.167 39.6869 115.121 42.0974 115.186 44.5145C115.212 45.5411 114.861 45.84 113.867 45.814C112.977 45.788 112.457 45.7361 112.47 44.5925C112.529 39.6544 112.522 34.7163 112.47 29.7781C112.457 28.758 112.795 28.4851 113.789 28.4656C114.874 28.4462 115.219 28.7775 115.186 29.8626C115.115 32.3317 115.167 34.8007 115.167 37.2698Z" fill="white"/>
</svg>
