<svg width="393" height="78" viewBox="0 0 393 78" fill="none" xmlns="http://www.w3.org/2000/svg">
<path d="M120.1 17.333L133.468 52.8171L146.774 17.333H154.207L136.779 61.3011H130.158L112.667 17.333H120.1Z" fill="url(#paint0_radial_527_438)"/>
<path d="M159.625 61.3011V17.333H178.24C180.239 17.333 182.071 17.7459 183.737 18.5715C185.403 19.3972 186.86 20.4913 188.11 21.8537C189.359 23.2161 190.317 24.7436 190.983 26.4363C191.649 28.1289 191.983 29.8629 191.983 31.6381C191.983 34.0739 191.42 36.4065 190.296 38.6359C189.213 40.8239 187.652 42.5992 185.611 43.9616C183.612 45.324 181.28 46.0052 178.615 46.0052H166.621V61.3011H159.625ZM166.621 39.8744H178.178C179.51 39.8744 180.676 39.5235 181.676 38.8216C182.675 38.0785 183.445 37.0877 183.987 35.8491C184.57 34.6106 184.861 33.2069 184.861 31.6381C184.861 30.028 184.528 28.6037 183.862 27.3652C183.196 26.1266 182.321 25.1771 181.238 24.5165C180.197 23.8147 179.052 23.4638 177.803 23.4638H166.621V39.8744Z" fill="url(#paint1_radial_527_438)"/>
<path d="M205.541 30.2138V61.3011H198.544V17.333H204.291L229.403 49.1015V17.3949H236.461V61.3011H230.34L205.541 30.2138Z" fill="url(#paint2_radial_527_438)"/>
<path d="M257.999 61.6107C255.792 61.6107 253.772 61.1772 251.94 60.3103C250.108 59.402 248.525 58.1841 247.192 56.6566C245.902 55.129 244.881 53.3745 244.132 51.3928C243.424 49.4111 243.07 47.3263 243.07 45.1382C243.07 42.8262 243.445 40.6588 244.194 38.6359C244.944 36.6129 245.985 34.8377 247.317 33.3101C248.692 31.7413 250.295 30.5234 252.127 29.6565C253.96 28.7895 256 28.356 258.249 28.356C260.873 28.356 263.163 28.9753 265.12 30.2138C267.119 31.4523 268.764 33.0624 270.055 35.0441V28.9133H276.114V60.3722C276.114 63.5098 275.344 66.1727 273.803 68.3608C272.304 70.5488 270.243 72.2209 267.619 73.3768C264.995 74.5328 262.039 75.1108 258.749 75.1108C255.126 75.1108 252.127 74.4915 249.754 73.253C247.38 72.0144 245.36 70.3218 243.694 68.175L247.567 64.5832C248.817 66.3172 250.42 67.6383 252.377 68.5465C254.376 69.4548 256.5 69.9089 258.749 69.9089C260.623 69.9089 262.351 69.558 263.933 68.8562C265.558 68.1956 266.849 67.1429 267.806 65.6979C268.764 64.2942 269.243 62.519 269.243 60.3722V55.418C268.077 57.3584 266.474 58.8859 264.433 60.0006C262.393 61.074 260.248 61.6107 257.999 61.6107ZM260.248 56.0992C261.289 56.0992 262.289 55.9341 263.246 55.6038C264.204 55.2323 265.079 54.7575 265.87 54.1795C266.703 53.5602 267.411 52.879 267.994 52.1359C268.577 51.3515 268.993 50.5258 269.243 49.6588V41.1749C268.702 39.7712 267.931 38.5533 266.932 37.5212C265.932 36.4478 264.808 35.6221 263.559 35.0441C262.309 34.4661 261.039 34.1771 259.748 34.1771C258.249 34.1771 256.896 34.5074 255.688 35.1679C254.522 35.7872 253.522 36.6336 252.69 37.707C251.857 38.7391 251.211 39.9157 250.753 41.2368C250.295 42.5579 250.066 43.9203 250.066 45.324C250.066 46.8102 250.316 48.1932 250.816 49.4731C251.357 50.7529 252.086 51.9088 253.002 52.941C253.918 53.9318 255.001 54.7162 256.25 55.2942C257.499 55.8309 258.832 56.0992 260.248 56.0992Z" fill="url(#paint3_radial_527_438)"/>
<path d="M302.719 34.7964C300.054 34.8377 297.68 35.4363 295.598 36.5923C293.557 37.7482 292.1 39.379 291.225 41.4845V61.3011H284.354V28.9133H290.726V36.1588C291.85 33.9294 293.328 32.1542 295.161 30.8331C296.993 29.4707 298.93 28.7276 300.97 28.6037C301.387 28.6037 301.72 28.6037 301.97 28.6037C302.261 28.6037 302.511 28.6243 302.719 28.6656V34.7964Z" fill="url(#paint4_radial_527_438)"/>
<path d="M305.283 51.8263C305.283 49.762 305.866 47.9662 307.032 46.4386C308.24 44.8698 309.885 43.6726 311.967 42.8469C314.049 41.9799 316.465 41.5464 319.213 41.5464C320.671 41.5464 322.149 41.6496 323.648 41.8561C325.189 42.0625 326.543 42.3928 327.709 42.8469V40.8033C327.709 38.5326 327.021 36.7574 325.647 35.4776C324.273 34.1978 322.295 33.5579 319.713 33.5579C317.881 33.5579 316.152 33.8881 314.528 34.5487C312.904 35.1679 311.176 36.0556 309.343 37.2115L307.032 32.6289C309.198 31.184 311.363 30.1106 313.529 29.4087C315.736 28.7069 318.047 28.356 320.462 28.356C324.835 28.356 328.271 29.512 330.769 31.8239C333.31 34.0945 334.58 37.3354 334.58 41.5464V53.6222C334.58 54.4066 334.705 54.9639 334.955 55.2942C335.246 55.6245 335.725 55.8102 336.391 55.8515V61.3011C335.767 61.4249 335.205 61.5075 334.705 61.5488C334.205 61.5901 333.789 61.6107 333.455 61.6107C331.998 61.6107 330.894 61.2598 330.145 60.558C329.395 59.8561 328.958 59.0304 328.833 58.0809L328.646 56.2231C327.23 58.0396 325.418 59.4433 323.211 60.4341C321.004 61.4249 318.776 61.9204 316.527 61.9204C314.362 61.9204 312.425 61.4869 310.718 60.6199C309.01 59.7116 307.678 58.4937 306.72 56.9662C305.762 55.4387 305.283 53.7254 305.283 51.8263ZM326.084 53.8079C326.584 53.2712 326.98 52.7345 327.271 52.1978C327.563 51.6611 327.709 51.1864 327.709 50.7735V47.0579C326.543 46.6038 325.314 46.2735 324.023 46.0671C322.732 45.8194 321.462 45.6955 320.213 45.6955C317.714 45.6955 315.673 46.1909 314.091 47.1818C312.55 48.1726 311.78 49.535 311.78 51.2689C311.78 52.2185 312.03 53.1267 312.529 53.9937C313.071 54.8607 313.82 55.5625 314.778 56.0992C315.778 56.6359 317.006 56.9043 318.464 56.9043C319.963 56.9043 321.399 56.6153 322.774 56.0373C324.148 55.4593 325.252 54.7162 326.084 53.8079Z" fill="url(#paint5_radial_527_438)"/>
<path d="M392.889 61.3011H386.018V43.1565C386.018 40.1427 385.518 37.934 384.519 36.5303C383.519 35.1267 382.062 34.4248 380.146 34.4248C378.23 34.4248 376.44 35.1473 374.774 36.5923C373.15 37.9959 372.005 39.8331 371.338 42.1038V61.3011H364.467V43.1565C364.467 40.1427 363.967 37.934 362.968 36.5303C361.968 35.1267 360.532 34.4248 358.658 34.4248C356.742 34.4248 354.951 35.1267 353.286 36.5303C351.661 37.934 350.495 39.7712 349.787 42.0418V61.3011H342.916V28.9133H349.163V35.4157C350.454 33.145 352.14 31.4111 354.223 30.2138C356.346 28.9753 358.762 28.356 361.469 28.356C364.176 28.356 366.299 29.0578 367.84 30.4615C369.423 31.8652 370.401 33.6198 370.776 35.7253C372.192 33.3308 373.92 31.5143 375.961 30.2757C378.043 28.9959 380.417 28.356 383.082 28.356C384.998 28.356 386.601 28.7069 387.892 29.4087C389.183 30.1106 390.182 31.0808 390.89 32.3193C391.598 33.5166 392.098 34.9202 392.389 36.5303C392.723 38.0992 392.889 39.7712 392.889 41.5464V61.3011Z" fill="url(#paint6_radial_527_438)"/>
<path fill-rule="evenodd" clip-rule="evenodd" d="M51.6658 77.4021L66.8211 54.0889C67.0965 53.6652 67.0993 53.1226 66.8283 52.6961L33.7282 0.609212C33.4873 0.230138 33.0658 0 32.6125 0H1.31919C0.276476 0 -0.352723 1.13923 0.2122 2.00431L49.4504 77.4043C49.9697 78.1995 51.1482 78.1983 51.6658 77.4021ZM89.5556 15.8207C89.5556 19.4818 88.2816 22.8526 86.1429 25.5334L75.3753 41.5293C75.3529 41.3106 75.3365 41.0716 75.3189 40.8157L75.3188 40.8152C75.2037 39.1431 75.0391 36.7515 72.8432 34.6077C71.9609 33.7464 69.9879 32.5706 68.1686 31.4864C67.0343 30.8104 65.9598 30.1701 65.2466 29.6638L65.4189 29.6207C60.4801 26.91 57.1436 21.7457 57.1436 15.8207C57.1436 7.08315 64.3993 0 73.3496 0C82.2999 0 89.5556 7.08315 89.5556 15.8207Z" fill="url(#paint7_radial_527_438)"/>
<defs>
<radialGradient id="paint0_radial_527_438" cx="0" cy="0" r="1" gradientUnits="userSpaceOnUse" gradientTransform="translate(-46.1256 58.0984) rotate(-2.70996) scale(448.078 103.31)">
<stop stop-color="#FFDD55"/>
<stop offset="0.1" stop-color="#FFDD55"/>
<stop offset="0.5" stop-color="#FF543E"/>
<stop offset="1" stop-color="#C837AB"/>
</radialGradient>
<radialGradient id="paint1_radial_527_438" cx="0" cy="0" r="1" gradientUnits="userSpaceOnUse" gradientTransform="translate(-46.1256 58.0984) rotate(-2.70996) scale(448.078 103.31)">
<stop stop-color="#FFDD55"/>
<stop offset="0.1" stop-color="#FFDD55"/>
<stop offset="0.5" stop-color="#FF543E"/>
<stop offset="1" stop-color="#C837AB"/>
</radialGradient>
<radialGradient id="paint2_radial_527_438" cx="0" cy="0" r="1" gradientUnits="userSpaceOnUse" gradientTransform="translate(-46.1256 58.0984) rotate(-2.70996) scale(448.078 103.31)">
<stop stop-color="#FFDD55"/>
<stop offset="0.1" stop-color="#FFDD55"/>
<stop offset="0.5" stop-color="#FF543E"/>
<stop offset="1" stop-color="#C837AB"/>
</radialGradient>
<radialGradient id="paint3_radial_527_438" cx="0" cy="0" r="1" gradientUnits="userSpaceOnUse" gradientTransform="translate(-46.1256 58.0984) rotate(-2.70996) scale(448.078 103.31)">
<stop stop-color="#FFDD55"/>
<stop offset="0.1" stop-color="#FFDD55"/>
<stop offset="0.5" stop-color="#FF543E"/>
<stop offset="1" stop-color="#C837AB"/>
</radialGradient>
<radialGradient id="paint4_radial_527_438" cx="0" cy="0" r="1" gradientUnits="userSpaceOnUse" gradientTransform="translate(-46.1256 58.0984) rotate(-2.70996) scale(448.078 103.31)">
<stop stop-color="#FFDD55"/>
<stop offset="0.1" stop-color="#FFDD55"/>
<stop offset="0.5" stop-color="#FF543E"/>
<stop offset="1" stop-color="#C837AB"/>
</radialGradient>
<radialGradient id="paint5_radial_527_438" cx="0" cy="0" r="1" gradientUnits="userSpaceOnUse" gradientTransform="translate(-46.1256 58.0984) rotate(-2.70996) scale(448.078 103.31)">
<stop stop-color="#FFDD55"/>
<stop offset="0.1" stop-color="#FFDD55"/>
<stop offset="0.5" stop-color="#FF543E"/>
<stop offset="1" stop-color="#C837AB"/>
</radialGradient>
<radialGradient id="paint6_radial_527_438" cx="0" cy="0" r="1" gradientUnits="userSpaceOnUse" gradientTransform="translate(-46.1256 58.0984) rotate(-2.70996) scale(448.078 103.31)">
<stop stop-color="#FFDD55"/>
<stop offset="0.1" stop-color="#FFDD55"/>
<stop offset="0.5" stop-color="#FF543E"/>
<stop offset="1" stop-color="#C837AB"/>
</radialGradient>
<radialGradient id="paint7_radial_527_438" cx="0" cy="0" r="1" gradientUnits="userSpaceOnUse" gradientTransform="translate(-2.84969 63.0807) rotate(-30.1703) scale(106.884 101.39)">
<stop stop-color="#FFDD55"/>
<stop offset="0.1" stop-color="#FFDD55"/>
<stop offset="0.5" stop-color="#FF543E"/>
<stop offset="1" stop-color="#C837AB"/>
</radialGradient>
</defs>
</svg>
