<svg width="228" height="46" viewBox="0 0 228 46" fill="none" xmlns="http://www.w3.org/2000/svg">
<path d="M148.985 13.2407C148.941 12.8657 148.761 12.5745 148.445 12.3673C148.129 12.1601 147.742 12.0564 147.283 12.0564C146.947 12.0564 146.654 12.1107 146.402 12.2193C146.153 12.3278 145.958 12.4771 145.817 12.6671C145.679 12.857 145.61 13.0729 145.61 13.3147C145.61 13.517 145.658 13.6909 145.754 13.8365C145.853 13.9796 145.979 14.0992 146.132 14.1955C146.285 14.2892 146.445 14.3669 146.613 14.4286C146.781 14.4878 146.935 14.5359 147.076 14.5729L147.845 14.7802C148.043 14.832 148.262 14.9035 148.504 14.9948C148.748 15.0861 148.981 15.2107 149.203 15.3686C149.428 15.524 149.613 15.7239 149.759 15.9681C149.904 16.2124 149.977 16.5121 149.977 16.8674C149.977 17.2769 149.87 17.647 149.655 17.9776C149.443 18.3082 149.132 18.571 148.722 18.7659C148.315 18.9608 147.821 19.0582 147.238 19.0582C146.696 19.0582 146.226 18.9706 145.828 18.7955C145.434 18.6203 145.123 18.3761 144.896 18.0627C144.671 17.7494 144.544 17.3855 144.515 16.971H145.462C145.487 17.2572 145.583 17.4941 145.751 17.6816C145.921 17.8666 146.136 18.0048 146.395 18.096C146.656 18.1849 146.937 18.2293 147.238 18.2293C147.589 18.2293 147.903 18.1725 148.182 18.059C148.461 17.9431 148.682 17.7827 148.845 17.5779C149.007 17.3707 149.089 17.1289 149.089 16.8526C149.089 16.6009 149.018 16.3962 148.878 16.2383C148.737 16.0804 148.552 15.9521 148.323 15.8534C148.093 15.7547 147.845 15.6684 147.579 15.5943L146.646 15.3279C146.054 15.1577 145.585 14.9146 145.24 14.5988C144.895 14.2831 144.722 13.8698 144.722 13.3591C144.722 12.9347 144.837 12.5647 145.066 12.2489C145.298 11.9306 145.609 11.6839 145.999 11.5087C146.391 11.3311 146.829 11.2423 147.312 11.2423C147.801 11.2423 148.235 11.3299 148.615 11.505C148.995 11.6777 149.296 11.9146 149.518 12.2156C149.743 12.5166 149.861 12.8583 149.873 13.2407H148.985Z" fill="#333333"/>
<path d="M153.677 19.0434C153.164 19.0434 152.713 18.9213 152.326 18.6771C151.941 18.4328 151.64 18.0911 151.423 17.652C151.208 17.2128 151.101 16.6996 151.101 16.1124C151.101 15.5203 151.208 15.0035 151.423 14.5618C151.64 14.1202 151.941 13.7773 152.326 13.533C152.713 13.2888 153.164 13.1667 153.677 13.1667C154.19 13.1667 154.639 13.2888 155.024 13.533C155.411 13.7773 155.712 14.1202 155.927 14.5618C156.144 15.0035 156.252 15.5203 156.252 16.1124C156.252 16.6996 156.144 17.2128 155.927 17.652C155.712 18.0911 155.411 18.4328 155.024 18.6771C154.639 18.9213 154.19 19.0434 153.677 19.0434ZM153.677 18.2589C154.067 18.2589 154.387 18.159 154.639 17.9591C154.891 17.7593 155.077 17.4965 155.198 17.1709C155.319 16.8452 155.379 16.4924 155.379 16.1124C155.379 15.7325 155.319 15.3785 155.198 15.0503C155.077 14.7222 154.891 14.457 154.639 14.2547C154.387 14.0524 154.067 13.9512 153.677 13.9512C153.287 13.9512 152.966 14.0524 152.715 14.2547C152.463 14.457 152.277 14.7222 152.156 15.0503C152.035 15.3785 151.974 15.7325 151.974 16.1124C151.974 16.4924 152.035 16.8452 152.156 17.1709C152.277 17.4965 152.463 17.7593 152.715 17.9591C152.966 18.159 153.287 18.2589 153.677 18.2589Z" fill="#333333"/>
<path d="M160.117 13.2407V13.9808H157.053V13.2407H160.117ZM157.971 18.925V12.4561C157.971 12.1305 158.047 11.8591 158.2 11.642C158.353 11.4249 158.552 11.262 158.796 11.1535C159.04 11.0449 159.298 10.9906 159.569 10.9906C159.784 10.9906 159.959 11.0079 160.095 11.0424C160.23 11.077 160.332 11.1091 160.398 11.1387L160.147 11.8936C160.102 11.8788 160.04 11.8603 159.962 11.8381C159.885 11.8159 159.784 11.8048 159.658 11.8048C159.369 11.8048 159.161 11.8776 159.033 12.0231C158.907 12.1687 158.844 12.3821 158.844 12.6634V18.925H157.971Z" fill="#333333"/>
<path d="M163.813 13.2407V13.9808H160.867V13.2407H163.813ZM161.726 11.8788H162.599V17.2967C162.599 17.5434 162.635 17.7284 162.707 17.8518C162.781 17.9727 162.874 18.0541 162.988 18.096C163.104 18.1355 163.226 18.1553 163.354 18.1553C163.45 18.1553 163.529 18.1503 163.591 18.1404C163.653 18.1281 163.702 18.1182 163.739 18.1108L163.917 18.8954C163.857 18.9176 163.775 18.9398 163.669 18.962C163.563 18.9867 163.428 18.999 163.265 18.999C163.019 18.999 162.777 18.946 162.54 18.8399C162.306 18.7338 162.111 18.5722 161.955 18.3551C161.802 18.138 161.726 17.8641 161.726 17.5335V11.8788Z" fill="#333333"/>
<path d="M166.415 18.925L164.683 13.2407H165.6L166.829 17.5927H166.888L168.102 13.2407H169.035L170.234 17.5779H170.293L171.522 13.2407H172.439L170.708 18.925H169.849L168.605 14.5581H168.517L167.273 18.925H166.415Z" fill="#333333"/>
<path d="M175.267 19.0582C174.907 19.0582 174.58 18.9904 174.286 18.8547C173.993 18.7165 173.759 18.5179 173.587 18.2589C173.414 17.9974 173.328 17.6816 173.328 17.3115C173.328 16.9858 173.392 16.7218 173.52 16.5195C173.648 16.3148 173.82 16.1544 174.034 16.0384C174.249 15.9225 174.486 15.8361 174.745 15.7794C175.007 15.7202 175.269 15.6733 175.533 15.6388C175.879 15.5943 176.159 15.561 176.373 15.5388C176.59 15.5142 176.748 15.4735 176.847 15.4167C176.948 15.36 176.999 15.2613 176.999 15.1206V15.091C176.999 14.7259 176.899 14.4422 176.699 14.2399C176.502 14.0376 176.202 13.9364 175.8 13.9364C175.383 13.9364 175.056 14.0277 174.819 14.2103C174.582 14.3928 174.416 14.5877 174.319 14.795L173.49 14.4989C173.638 14.1535 173.836 13.8846 174.083 13.6922C174.332 13.4973 174.603 13.3616 174.897 13.2851C175.193 13.2061 175.484 13.1667 175.77 13.1667C175.953 13.1667 176.162 13.1889 176.399 13.2333C176.639 13.2752 176.869 13.3628 177.091 13.496C177.316 13.6293 177.502 13.8303 177.65 14.0992C177.798 14.3682 177.872 14.7284 177.872 15.1799V18.925H176.999V18.1553H176.954C176.895 18.2786 176.796 18.4106 176.658 18.5512C176.52 18.6919 176.336 18.8115 176.107 18.9102C175.877 19.0089 175.597 19.0582 175.267 19.0582ZM175.4 18.2737C175.745 18.2737 176.037 18.2058 176.273 18.0701C176.513 17.9344 176.693 17.7593 176.814 17.5446C176.937 17.33 176.999 17.1042 176.999 16.8674V16.068C176.962 16.1124 176.88 16.1532 176.755 16.1902C176.631 16.2247 176.488 16.2555 176.325 16.2827C176.165 16.3074 176.008 16.3296 175.855 16.3493C175.705 16.3666 175.583 16.3814 175.489 16.3937C175.262 16.4233 175.05 16.4714 174.852 16.538C174.657 16.6022 174.5 16.6996 174.379 16.8304C174.26 16.9587 174.201 17.1338 174.201 17.3559C174.201 17.6594 174.313 17.8888 174.538 18.0442C174.765 18.1972 175.052 18.2737 175.4 18.2737Z" fill="#333333"/>
<path d="M179.466 18.925V13.2407H180.31V14.0992H180.369C180.473 13.818 180.66 13.5898 180.932 13.4146C181.203 13.2394 181.509 13.1519 181.849 13.1519C181.914 13.1519 181.994 13.1531 182.09 13.1556C182.186 13.158 182.259 13.1617 182.308 13.1667V14.0548C182.279 14.0474 182.211 14.0363 182.105 14.0215C182.001 14.0043 181.891 13.9956 181.775 13.9956C181.499 13.9956 181.252 14.0536 181.035 14.1696C180.821 14.2831 180.65 14.4409 180.525 14.6433C180.401 14.8431 180.34 15.0713 180.34 15.3279V18.925H179.466Z" fill="#333333"/>
<path d="M185.554 19.0434C185.006 19.0434 184.534 18.9225 184.137 18.6808C183.742 18.4365 183.437 18.096 183.222 17.6594C183.01 17.2202 182.904 16.7095 182.904 16.1272C182.904 15.545 183.01 15.0318 183.222 14.5877C183.437 14.1412 183.736 13.7933 184.118 13.5441C184.503 13.2925 184.952 13.1667 185.465 13.1667C185.761 13.1667 186.054 13.216 186.342 13.3147C186.631 13.4134 186.894 13.5737 187.13 13.7958C187.367 14.0154 187.556 14.3065 187.697 14.6692C187.837 15.0318 187.908 15.4784 187.908 16.0088V16.3789H183.526V15.6239H187.019C187.019 15.3032 186.955 15.017 186.827 14.7654C186.701 14.5137 186.521 14.3151 186.287 14.1696C186.055 14.024 185.781 13.9512 185.465 13.9512C185.117 13.9512 184.816 14.0376 184.562 14.2103C184.31 14.3805 184.117 14.6025 183.981 14.8764C183.845 15.1503 183.778 15.4438 183.778 15.7572V16.2605C183.778 16.6898 183.852 17.0537 184 17.3522C184.15 17.6483 184.359 17.874 184.625 18.0294C184.891 18.1824 185.201 18.2589 185.554 18.2589C185.783 18.2589 185.991 18.2268 186.176 18.1627C186.363 18.096 186.525 17.9974 186.66 17.8666C186.796 17.7334 186.901 17.5681 186.975 17.3707L187.819 17.6075C187.73 17.8937 187.581 18.1454 187.371 18.3625C187.161 18.5771 186.902 18.7449 186.594 18.8658C186.285 18.9842 185.939 19.0434 185.554 19.0434Z" fill="#333333"/>
<path d="M147.179 34.5569H144.84V26.9778H147.283C148.018 26.9778 148.647 27.1295 149.17 27.433C149.693 27.734 150.094 28.167 150.373 28.7319C150.652 29.2945 150.791 29.968 150.791 30.7525C150.791 31.542 150.65 32.2217 150.369 32.7917C150.088 33.3591 149.678 33.7958 149.141 34.1017C148.603 34.4052 147.949 34.5569 147.179 34.5569ZM145.758 33.7427H147.12C147.747 33.7427 148.266 33.6218 148.678 33.3801C149.09 33.1383 149.397 32.7941 149.599 32.3476C149.802 31.901 149.903 31.3693 149.903 30.7525C149.903 30.1407 149.803 29.614 149.603 29.1723C149.403 28.7282 149.105 28.3878 148.708 28.1509C148.31 27.9116 147.816 27.792 147.224 27.792H145.758V33.7427Z" fill="#333333"/>
<path d="M154.595 34.6753C154.048 34.6753 153.575 34.5544 153.178 34.3127C152.783 34.0684 152.479 33.7279 152.264 33.2912C152.052 32.8521 151.946 32.3414 151.946 31.7591C151.946 31.1769 152.052 30.6637 152.264 30.2196C152.479 29.7731 152.777 29.4252 153.16 29.176C153.544 28.9244 153.993 28.7986 154.507 28.7986C154.803 28.7986 155.095 28.8479 155.384 28.9466C155.672 29.0453 155.935 29.2056 156.172 29.4277C156.409 29.6473 156.598 29.9384 156.738 30.3011C156.879 30.6637 156.949 31.1103 156.949 31.6407V32.0108H152.567V31.2558H156.061C156.061 30.9351 155.997 30.6489 155.868 30.3973C155.743 30.1456 155.563 29.947 155.328 29.8015C155.096 29.6559 154.822 29.5831 154.507 29.5831C154.159 29.5831 153.858 29.6695 153.604 29.8422C153.352 30.0124 153.158 30.2344 153.023 30.5083C152.887 30.7822 152.819 31.0757 152.819 31.3891V31.8924C152.819 32.3217 152.893 32.6856 153.041 32.9841C153.192 33.2801 153.4 33.5059 153.667 33.6613C153.933 33.8143 154.243 33.8908 154.595 33.8908C154.825 33.8908 155.032 33.8587 155.217 33.7945C155.405 33.7279 155.566 33.6292 155.702 33.4985C155.838 33.3653 155.943 33.2 156.017 33.0026L156.86 33.2394C156.771 33.5256 156.622 33.7773 156.413 33.9944C156.203 34.209 155.944 34.3768 155.635 34.4977C155.327 34.6161 154.98 34.6753 154.595 34.6753Z" fill="#333333"/>
<path d="M162.753 28.8726L160.651 34.5569H159.763L157.661 28.8726H158.608L160.177 33.4023H160.236L161.805 28.8726H162.753Z" fill="#333333"/>
<path d="M166.085 34.6753C165.538 34.6753 165.065 34.5544 164.668 34.3127C164.273 34.0684 163.968 33.7279 163.754 33.2912C163.542 32.8521 163.436 32.3414 163.436 31.7591C163.436 31.1769 163.542 30.6637 163.754 30.2196C163.968 29.7731 164.267 29.4252 164.649 29.176C165.034 28.9244 165.483 28.7986 165.996 28.7986C166.293 28.7986 166.585 28.8479 166.874 28.9466C167.162 29.0453 167.425 29.2056 167.662 29.4277C167.899 29.6473 168.087 29.9384 168.228 30.3011C168.369 30.6637 168.439 31.1103 168.439 31.6407V32.0108H164.057V31.2558H167.551C167.551 30.9351 167.487 30.6489 167.358 30.3973C167.233 30.1456 167.052 29.947 166.818 29.8015C166.586 29.6559 166.312 29.5831 165.996 29.5831C165.649 29.5831 165.348 29.6695 165.093 29.8422C164.842 30.0124 164.648 30.2344 164.512 30.5083C164.377 30.7822 164.309 31.0757 164.309 31.3891V31.8924C164.309 32.3217 164.383 32.6856 164.531 32.9841C164.681 33.2801 164.89 33.5059 165.156 33.6613C165.423 33.8143 165.732 33.8908 166.085 33.8908C166.315 33.8908 166.522 33.8587 166.707 33.7945C166.895 33.7279 167.056 33.6292 167.192 33.4985C167.328 33.3653 167.432 33.2 167.506 33.0026L168.35 33.2394C168.261 33.5256 168.112 33.7773 167.902 33.9944C167.693 34.209 167.434 34.3768 167.125 34.4977C166.817 34.6161 166.47 34.6753 166.085 34.6753Z" fill="#333333"/>
<path d="M170.641 26.9778V34.5569H169.768V26.9778H170.641Z" fill="#333333"/>
<path d="M174.55 34.6753C174.037 34.6753 173.586 34.5532 173.199 34.3089C172.814 34.0647 172.513 33.723 172.296 33.2838C172.081 32.8447 171.974 32.3315 171.974 31.7443C171.974 31.1522 172.081 30.6354 172.296 30.1937C172.513 29.7521 172.814 29.4092 173.199 29.1649C173.586 28.9207 174.037 28.7986 174.55 28.7986C175.063 28.7986 175.512 28.9207 175.897 29.1649C176.284 29.4092 176.585 29.7521 176.8 30.1937C177.017 30.6354 177.126 31.1522 177.126 31.7443C177.126 32.3315 177.017 32.8447 176.8 33.2838C176.585 33.723 176.284 34.0647 175.897 34.3089C175.512 34.5532 175.063 34.6753 174.55 34.6753ZM174.55 33.8908C174.94 33.8908 175.26 33.7908 175.512 33.591C175.764 33.3912 175.95 33.1284 176.071 32.8028C176.192 32.4771 176.252 32.1243 176.252 31.7443C176.252 31.3644 176.192 31.0104 176.071 30.6822C175.95 30.3541 175.764 30.0889 175.512 29.8866C175.26 29.6843 174.94 29.5831 174.55 29.5831C174.16 29.5831 173.839 29.6843 173.588 29.8866C173.336 30.0889 173.15 30.3541 173.029 30.6822C172.908 31.0104 172.847 31.3644 172.847 31.7443C172.847 32.1243 172.908 32.4771 173.029 32.8028C173.15 33.1284 173.336 33.3912 173.588 33.591C173.839 33.7908 174.16 33.8908 174.55 33.8908Z" fill="#333333"/>
<path d="M178.459 36.6885V28.8726H179.302V29.7756H179.406C179.47 29.6769 179.559 29.551 179.673 29.3981C179.788 29.2426 179.954 29.1045 180.168 28.9836C180.386 28.8602 180.679 28.7986 181.049 28.7986C181.528 28.7986 181.95 28.9182 182.315 29.1575C182.68 29.3968 182.965 29.7361 183.17 30.1752C183.375 30.6144 183.477 31.1325 183.477 31.7295C183.477 32.3315 183.375 32.8533 183.17 33.2949C182.965 33.7341 182.681 34.0746 182.319 34.3164C181.956 34.5557 181.538 34.6753 181.064 34.6753C180.699 34.6753 180.407 34.6149 180.187 34.494C179.967 34.3706 179.798 34.2312 179.68 34.0758C179.562 33.9179 179.47 33.7871 179.406 33.6835H179.332V36.6885H178.459ZM179.317 31.7147C179.317 32.144 179.38 32.5227 179.506 32.8509C179.632 33.1765 179.816 33.4319 180.057 33.6169C180.299 33.7995 180.595 33.8908 180.946 33.8908C181.311 33.8908 181.615 33.7945 181.86 33.6021C182.106 33.4072 182.291 33.1457 182.415 32.8176C182.541 32.487 182.604 32.1194 182.604 31.7147C182.604 31.3151 182.542 30.9549 182.418 30.6341C182.298 30.3109 182.114 30.0556 181.867 29.8681C181.623 29.6781 181.316 29.5831 180.946 29.5831C180.59 29.5831 180.292 29.6732 180.05 29.8533C179.808 30.0309 179.626 30.2801 179.502 30.6008C179.379 30.9191 179.317 31.2904 179.317 31.7147Z" fill="#333333"/>
<path d="M187.192 34.6753C186.645 34.6753 186.172 34.5544 185.775 34.3127C185.38 34.0684 185.076 33.7279 184.861 33.2912C184.649 32.8521 184.543 32.3414 184.543 31.7591C184.543 31.1769 184.649 30.6637 184.861 30.2196C185.076 29.7731 185.374 29.4252 185.757 29.176C186.141 28.9244 186.59 28.7986 187.104 28.7986C187.4 28.7986 187.692 28.8479 187.981 28.9466C188.269 29.0453 188.532 29.2056 188.769 29.4277C189.006 29.6473 189.195 29.9384 189.335 30.3011C189.476 30.6637 189.546 31.1103 189.546 31.6407V32.0108H185.164V31.2558H188.658C188.658 30.9351 188.594 30.6489 188.465 30.3973C188.34 30.1456 188.16 29.947 187.925 29.8015C187.693 29.6559 187.419 29.5831 187.104 29.5831C186.756 29.5831 186.455 29.6695 186.201 29.8422C185.949 30.0124 185.755 30.2344 185.62 30.5083C185.484 30.7822 185.416 31.0757 185.416 31.3891V31.8924C185.416 32.3217 185.49 32.6856 185.638 32.9841C185.789 33.2801 185.997 33.5059 186.264 33.6613C186.53 33.8143 186.84 33.8908 187.192 33.8908C187.422 33.8908 187.629 33.8587 187.814 33.7945C188.002 33.7279 188.163 33.6292 188.299 33.4985C188.435 33.3653 188.539 33.2 188.614 33.0026L189.457 33.2394C189.368 33.5256 189.219 33.7773 189.009 33.9944C188.8 34.209 188.541 34.3768 188.232 34.4977C187.924 34.6161 187.577 34.6753 187.192 34.6753Z" fill="#333333"/>
<path d="M190.875 34.5569V28.8726H191.718V29.7311H191.778C191.881 29.4499 192.069 29.2217 192.34 29.0465C192.612 28.8713 192.917 28.7838 193.258 28.7838C193.322 28.7838 193.402 28.785 193.498 28.7875C193.595 28.7899 193.667 28.7936 193.717 28.7986V29.6867C193.687 29.6793 193.619 29.6682 193.513 29.6534C193.41 29.6362 193.3 29.6275 193.184 29.6275C192.908 29.6275 192.661 29.6855 192.444 29.8015C192.229 29.9149 192.059 30.0728 191.933 30.2752C191.81 30.475 191.748 30.7032 191.748 30.9598V34.5569H190.875Z" fill="#333333"/>
<path d="M201.946 28.8726C201.902 28.4976 201.722 28.2064 201.406 27.9992C201.09 27.792 200.703 27.6883 200.244 27.6883C199.908 27.6883 199.615 27.7426 199.363 27.8512C199.114 27.9597 198.919 28.109 198.778 28.299C198.64 28.4889 198.571 28.7048 198.571 28.9466C198.571 29.1489 198.619 29.3228 198.716 29.4684C198.814 29.6115 198.94 29.7311 199.093 29.8274C199.246 29.9211 199.406 29.9988 199.574 30.0605C199.742 30.1197 199.896 30.1678 200.037 30.2048L200.807 30.4121C201.004 30.4639 201.223 30.5354 201.465 30.6267C201.709 30.718 201.943 30.8426 202.165 31.0005C202.389 31.1559 202.574 31.3558 202.72 31.6C202.865 31.8443 202.938 32.144 202.938 32.4993C202.938 32.9088 202.831 33.2789 202.616 33.6095C202.404 33.9401 202.093 34.2029 201.684 34.3978C201.276 34.5927 200.782 34.6901 200.2 34.6901C199.657 34.6901 199.187 34.6025 198.79 34.4274C198.395 34.2522 198.084 34.008 197.857 33.6946C197.633 33.3813 197.505 33.0174 197.476 32.6029H198.423C198.448 32.8891 198.544 33.1259 198.712 33.3135C198.882 33.4985 199.097 33.6367 199.356 33.7279C199.617 33.8168 199.899 33.8612 200.2 33.8612C200.55 33.8612 200.864 33.8044 201.143 33.6909C201.422 33.575 201.643 33.4146 201.806 33.2098C201.969 33.0026 202.05 32.7608 202.05 32.4845C202.05 32.2328 201.98 32.0281 201.839 31.8702C201.698 31.7123 201.513 31.584 201.284 31.4853C201.054 31.3866 200.806 31.3003 200.54 31.2262L199.607 30.9598C199.015 30.7896 198.547 30.5465 198.201 30.2307C197.856 29.9149 197.683 29.5017 197.683 28.991C197.683 28.5666 197.798 28.1966 198.027 27.8808C198.259 27.5625 198.57 27.3158 198.96 27.1406C199.352 26.963 199.79 26.8742 200.274 26.8742C200.762 26.8742 201.196 26.9618 201.576 27.1369C201.956 27.3096 202.257 27.5465 202.479 27.8475C202.704 28.1485 202.822 28.4902 202.835 28.8726H201.946Z" fill="#333333"/>
<path d="M206.801 28.8726V29.6127H203.855V28.8726H206.801ZM204.714 27.5107H205.587V32.9286C205.587 33.1753 205.623 33.3603 205.694 33.4837C205.768 33.6046 205.862 33.686 205.975 33.7279C206.091 33.7674 206.214 33.7871 206.342 33.7871C206.438 33.7871 206.517 33.7822 206.579 33.7723C206.64 33.76 206.69 33.7501 206.727 33.7427L206.904 34.5273C206.845 34.5495 206.763 34.5717 206.656 34.5939C206.55 34.6186 206.416 34.6309 206.253 34.6309C206.006 34.6309 205.765 34.5779 205.528 34.4718C205.293 34.3657 205.098 34.2041 204.943 33.987C204.79 33.7699 204.714 33.496 204.714 33.1654V27.5107Z" fill="#333333"/>
<path d="M211.697 32.2328V28.8726H212.57V34.5569H211.697V33.5947H211.638C211.504 33.8834 211.297 34.1288 211.016 34.3312C210.735 34.531 210.379 34.6309 209.95 34.6309C209.595 34.6309 209.279 34.5532 209.003 34.3978C208.726 34.2399 208.509 34.003 208.351 33.6872C208.193 33.369 208.115 32.9681 208.115 32.4845V28.8726H208.988V32.4253C208.988 32.8398 209.104 33.1704 209.336 33.4171C209.57 33.6638 209.869 33.7871 210.231 33.7871C210.448 33.7871 210.669 33.7316 210.894 33.6206C211.121 33.5096 211.311 33.3394 211.464 33.1099C211.619 32.8805 211.697 32.5881 211.697 32.2328Z" fill="#333333"/>
<path d="M216.316 34.6753C215.843 34.6753 215.424 34.5557 215.062 34.3164C214.699 34.0746 214.415 33.7341 214.211 33.2949C214.006 32.8533 213.903 32.3315 213.903 31.7295C213.903 31.1325 214.006 30.6144 214.211 30.1752C214.415 29.7361 214.7 29.3968 215.065 29.1575C215.431 28.9182 215.852 28.7986 216.331 28.7986C216.701 28.7986 216.993 28.8602 217.208 28.9836C217.425 29.1045 217.591 29.2426 217.704 29.3981C217.82 29.551 217.91 29.6769 217.974 29.7756H218.048V26.9778H218.922V34.5569H218.078V33.6835H217.974C217.91 33.7871 217.819 33.9179 217.7 34.0758C217.582 34.2312 217.413 34.3706 217.193 34.494C216.974 34.6149 216.681 34.6753 216.316 34.6753ZM216.435 33.8908C216.785 33.8908 217.081 33.7995 217.323 33.6169C217.565 33.4319 217.748 33.1765 217.874 32.8509C218 32.5227 218.063 32.144 218.063 31.7147C218.063 31.2904 218.001 30.9191 217.878 30.6008C217.755 30.2801 217.572 30.0309 217.33 29.8533C217.088 29.6732 216.79 29.5831 216.435 29.5831C216.065 29.5831 215.756 29.6781 215.51 29.8681C215.265 30.0556 215.081 30.3109 214.958 30.6341C214.837 30.9549 214.777 31.3151 214.777 31.7147C214.777 32.1194 214.838 32.487 214.962 32.8176C215.088 33.1457 215.273 33.4072 215.517 33.6021C215.764 33.7945 216.07 33.8908 216.435 33.8908Z" fill="#333333"/>
<path d="M220.642 34.5569V28.8726H221.516V34.5569H220.642ZM221.087 27.9252C220.916 27.9252 220.769 27.8672 220.646 27.7512C220.525 27.6353 220.465 27.4959 220.465 27.3331C220.465 27.1702 220.525 27.0308 220.646 26.9149C220.769 26.7989 220.916 26.741 221.087 26.741C221.257 26.741 221.402 26.7989 221.523 26.9149C221.647 27.0308 221.708 27.1702 221.708 27.3331C221.708 27.4959 221.647 27.6353 221.523 27.7512C221.402 27.8672 221.257 27.9252 221.087 27.9252Z" fill="#333333"/>
<path d="M225.425 34.6753C224.912 34.6753 224.461 34.5532 224.074 34.3089C223.689 34.0647 223.388 33.723 223.171 33.2838C222.956 32.8447 222.849 32.3315 222.849 31.7443C222.849 31.1522 222.956 30.6354 223.171 30.1937C223.388 29.7521 223.689 29.4092 224.074 29.1649C224.461 28.9207 224.912 28.7986 225.425 28.7986C225.938 28.7986 226.387 28.9207 226.772 29.1649C227.159 29.4092 227.46 29.7521 227.675 30.1937C227.892 30.6354 228 31.1522 228 31.7443C228 32.3315 227.892 32.8447 227.675 33.2838C227.46 33.723 227.159 34.0647 226.772 34.3089C226.387 34.5532 225.938 34.6753 225.425 34.6753ZM225.425 33.8908C225.815 33.8908 226.135 33.7908 226.387 33.591C226.639 33.3912 226.825 33.1284 226.946 32.8028C227.067 32.4771 227.127 32.1243 227.127 31.7443C227.127 31.3644 227.067 31.0104 226.946 30.6822C226.825 30.3541 226.639 30.0889 226.387 29.8866C226.135 29.6843 225.815 29.5831 225.425 29.5831C225.035 29.5831 224.714 29.6843 224.463 29.8866C224.211 30.0889 224.025 30.3541 223.904 30.6822C223.783 31.0104 223.722 31.3644 223.722 31.7443C223.722 32.1243 223.783 32.4771 223.904 32.8028C224.025 33.1284 224.211 33.3912 224.463 33.591C224.714 33.7908 225.035 33.8908 225.425 33.8908Z" fill="#333333"/>
<path d="M13.407 10.9293C11.5559 10.9293 10.0553 12.4754 10.0553 14.3827C10.0553 16.2899 11.5559 17.836 13.407 17.836H30.1658C37.5703 17.836 43.5729 24.0204 43.5729 31.6493C43.5729 39.2781 37.5703 45.4626 30.1658 45.4626H0.83794V45.216L7.70905 35.1026H30.1658C32.0169 35.1026 33.5176 33.5565 33.5176 31.6493C33.5176 29.742 32.0169 28.1959 30.1658 28.1959H13.407C6.00254 28.1959 0 22.0116 0 14.3827C0 6.75377 6.00254 0.569336 13.407 0.569336H62.0076C74.0399 0.569336 83.794 10.619 83.794 23.016V30.786H73.7387V23.016C73.7387 16.3406 68.4866 10.9293 62.0076 10.9293H13.407Z" fill="#333333"/>
<path d="M117.311 35.1026C119.162 35.1026 120.663 33.5564 120.663 31.6492C120.663 29.742 119.162 28.1959 117.311 28.1959H100.552C93.1475 28.1959 87.1449 22.0115 87.1449 14.3826C87.1449 6.75374 93.1475 0.569305 100.552 0.569305H129.88V0.815972L123.009 10.9293H100.552C98.7009 10.9293 97.2003 12.4754 97.2003 14.3826C97.2003 16.2899 98.7009 17.836 100.552 17.836H117.311C124.715 17.836 130.718 24.0204 130.718 31.6492C130.718 39.2781 124.715 45.4626 117.311 45.4626H46.9238V15.2459H56.9791V35.1026H117.311Z" fill="#333333"/>
</svg>
